<?xml version="1.0" encoding="UTF-8"?>
<svg width="1540" height="338" version="1.1" viewBox="0 123 1540 338" xmlns="http://www.w3.org/2000/svg">
 <defs>
  <clipPath id="GaRBKhmLniVk">
   <path d="m0 0h1540v810h-1540z" fill="none"/>
  </clipPath>
 </defs>
 <g clip-path="url(#GaRBKhmLniVk)">
  <rect width="1540" height="810" fill="#fff"/>
  <g fill="none" stroke-miterlimit="10">
   <g stroke="#000">
    <path d="m43.5 2.5v808" paint-order="fill stroke markers"/>
    <path d="m43.5 1.5-4 4" paint-order="fill stroke markers"/>
    <path d="m43.5 1.5 4 4" paint-order="fill stroke markers"/>
    <path d="m0.5 296.5h1538" paint-order="fill stroke markers"/>
    <path d="m1539.5 296.5-4-4" paint-order="fill stroke markers"/>
    <path d="m1539.5 296.5-4 4" paint-order="fill stroke markers"/>
    <path d="m43.5 296.5v3" paint-order="fill stroke markers"/>
    <path d="m102.5 296.5v3" paint-order="fill stroke markers"/>
    <path d="m162.5 296.5v3" paint-order="fill stroke markers"/>
    <path d="m222.5 296.5v3" paint-order="fill stroke markers"/>
    <path d="m281.5 296.5v3" paint-order="fill stroke markers"/>
    <path d="m341.5 296.5v3" paint-order="fill stroke markers"/>
    <path d="m400.5 296.5v3" paint-order="fill stroke markers"/>
    <path d="m460.5 296.5v3" paint-order="fill stroke markers"/>
    <path d="m520.5 296.5v3" paint-order="fill stroke markers"/>
    <path d="m579.5 296.5v3" paint-order="fill stroke markers"/>
    <path d="m639.5 296.5v3" paint-order="fill stroke markers"/>
    <path d="m698.5 296.5v3" paint-order="fill stroke markers"/>
    <path d="m758.5 296.5v3" paint-order="fill stroke markers"/>
    <path d="m818.5 296.5v3" paint-order="fill stroke markers"/>
    <path d="m877.5 296.5v3" paint-order="fill stroke markers"/>
    <path d="m937.5 296.5v3" paint-order="fill stroke markers"/>
    <path d="m996.5 296.5v3" paint-order="fill stroke markers"/>
    <path d="m1056.5 296.5v3" paint-order="fill stroke markers"/>
    <path d="m1115.5 296.5v3" paint-order="fill stroke markers"/>
    <path d="m1175.5 296.5v3" paint-order="fill stroke markers"/>
    <path d="m1235.5 296.5v3" paint-order="fill stroke markers"/>
    <path d="m1294.5 296.5v3" paint-order="fill stroke markers"/>
    <path d="m1354.5 296.5v3" paint-order="fill stroke markers"/>
    <path d="m1413.5 296.5v3" paint-order="fill stroke markers"/>
    <path d="m1473.5 296.5v3" paint-order="fill stroke markers"/>
    <path d="m40.5 772.5h3" paint-order="fill stroke markers"/>
    <path d="m40.5 713.5h3" paint-order="fill stroke markers"/>
    <path d="m40.5 653.5h3" paint-order="fill stroke markers"/>
    <path d="m40.5 594.5h3" paint-order="fill stroke markers"/>
    <path d="m40.5 534.5h3" paint-order="fill stroke markers"/>
    <path d="m40.5 474.5h3" paint-order="fill stroke markers"/>
    <path d="m40.5 415.5h3" paint-order="fill stroke markers"/>
    <path d="m40.5 355.5h3" paint-order="fill stroke markers"/>
    <path d="m40.5 236.5h3" paint-order="fill stroke markers"/>
    <path d="m40.5 176.5h3" paint-order="fill stroke markers"/>
    <path d="m40.5 117.5h3" paint-order="fill stroke markers"/>
    <path d="m40.5 57.5h3" paint-order="fill stroke markers"/>
   </g>
   <g stroke-linecap="round" stroke-linejoin="round" stroke-opacity=".8" stroke-width="2.5">
    <path d="m0 338.53 1-0.93595 1-0.93887 1-0.94173 1-0.94451 1-0.94724 1-0.94989 1-0.95249 1-0.955 1-0.95747 1-0.95984 1-0.96217 1-0.96442 1-0.96661 1-0.96872 1-0.97077 1-0.97274 1-0.97466 1-0.9765 1-0.97828 1-0.97998 1-0.98162 1-0.98318 1-0.98468 1-0.98611 1-0.98747 1-0.98875 1-0.98998 1-0.99113 1-0.99221 1-0.99321 1-0.99416 1-0.99503 1-0.99583 1-0.99656 1-0.99721 1-0.99781 1-0.99833 1-0.99878 1-0.99916 1-0.99946 1-0.99971 1-0.99987 2-2 1-0.99996 1-0.99984 1-0.99965 1-0.9994 1-0.99908 1-0.99868 1-0.99822 1-0.99768 1-0.99707 1-0.9964 1-0.99565 1-0.99484 1-0.99395 1-0.99299 1-0.99197 1-0.99087 1-0.9897 1-0.98847 1-0.98716 1-0.98579 1-0.98434 1-0.98283 1-0.98125 1-0.9796 1-0.97788 1-0.97608 1-0.97423 1-0.9723 1-0.97031 1-0.96824 1-0.96611 1-0.96391 1-0.96165 1-0.95931 1-0.9569 1-0.95444 1-0.95189 1-0.9493 1-0.94662 1-0.94388 1-0.94108 1-0.93821 1-0.93527 1-0.93227 1-0.9292 1-0.92607 1-0.92287 1-0.91961 1-0.91627 1-0.91289 1-0.90942 1-0.90591 1-0.90232 1-0.89867 1-0.89496 1-0.89118 1-0.88735 1-0.88345 1-0.87948 1-0.87546 1-0.87138 1-0.86722 1-0.86302 1-0.85875 1-0.85442 1-0.85003 1-0.84558 1-0.84107 1-0.83651 1-0.83188 1-0.82719 1-0.82244 1-0.81765 1-0.81278 1-0.80787 1-0.8029 1-0.79786 1-0.79278 1-0.78764 1-0.78244 1-0.77719 1-0.77188 1-0.76651 1-0.76111 1-0.75563 1-0.75011 1-0.74454 1-0.73891 1-0.73322 1-0.7275 1-0.72172 1-0.71588 1-0.71 1-0.70406 1-0.69808 1-0.69205 1-0.68597 1-0.67983 1-0.67366 1-0.66744 1-0.66116 1-0.65485 1-0.64848 1-0.64207 1-0.63562 1-0.62912 1-0.62257 1-0.61598 1-0.60935 1-0.60268 1-0.59596 1-0.58921 1-0.5824 1-0.57556 1-0.56868 1-0.56176 1-0.55479 1-0.5478 1-0.54076 1-0.53368 1-0.52656 1-0.51942 1-0.51222 1-0.505 1-0.49774 1-0.49045 1-0.48312 1-0.47575 1-0.46836 1-0.46092 1-0.45347 1-0.44597 1-0.43844 1-0.43089 1-0.4233 1-0.41568 1-0.40804 1-0.40037 1-0.39266 1-0.38493 1-0.37717 1-0.36939 1-0.36157 1-0.35375 1-0.34588 1-0.338 1-0.33008 1-0.32216 1-0.3142 1-0.30623 1-0.29822 1-0.29021 1-0.28217 1-0.27411 1-0.26602 1-0.25794 1-0.24981 1-0.24168 1-0.23353 1-0.22537 1-0.21718 1-0.20899 1-0.20077 1-0.19254 1-0.18431 1-0.17605 1-0.16778 1-0.15951 1-0.15122 1-0.14292 1-0.13461 1-0.12629 1-0.11796 1-0.10963 1-0.10128 1-0.0929 1-0.0846 1-0.0762 1-0.0678 1-0.0595 1-0.0511 1-0.0427 1-0.0343 1-0.0259 1-0.0175 1-9e-3 1-1e-3v7e-4l1 8e-3 1 0.016 1 0.0244 1 0.0328 1 0.0412 1 0.0496 1 0.0579 1 0.0663 1 0.0747 1 0.083 1 0.0914 1 0.0998 1 0.1081 1 0.11644 1 0.12476 1 0.13309 1 0.1414 1 0.1497 1 0.15799 1 0.16627 1 0.17454 1 0.18279 1 0.19104 1 0.19927 1 0.20748 1 0.21568 1 0.22387 1 0.23203 1 0.2402 1 0.24832 1 0.25645 1 0.26455 1 0.27263 1 0.28069 1 0.28874 1 0.29676 1 0.30476 1 0.31274 1 0.3207 1 0.32864 1 0.33655 1 0.34444 1 0.3523 1 0.36015 1 0.36796 1 0.37575 1 0.38351 1 0.39125 1 0.39895 1 0.40664 1 0.41428 1 0.42191 1 0.4295 1 0.43706 1 0.4446 1 0.45209 1 0.45956 1 0.467 1 0.4744 1 0.48177 1 0.48911 1 0.49641 1 0.50367 1 0.51091 1 0.5181 1 0.52526 1 0.53238 1 0.53946 1 0.54651 1 0.55352 1 0.56049 1 0.56741 1 0.5743 1 0.58116 1 0.58796 1 0.59472 1 0.60146 1 0.60813 1 0.61477 1 0.62137 1 0.62792 1 0.63443 1 0.6409 1 0.64731 1 0.65368 1 0.66001 1 0.66629 1 0.67253 1 0.67871 1 0.68485 1 0.69093 1 0.69698 1 0.70298 1 0.70891 1 0.71481 1 0.72065 1 0.72644 1 0.73218 1 0.73788 1 0.74351 1 0.74909 1 0.75463 1 0.7601 1 0.76553 1 0.7709 1 0.77622 1 0.78148 1 0.78669 1 0.79185 1 0.79693 1 0.80198 1 0.80697 1 0.81188 1 0.81676 1 0.82158 1 0.82632 1 0.83103 1 0.83566 1 0.84024 1 0.84476 1 0.84922 1 0.85362 1 0.85796 1 0.86224 1 0.86646 1 0.87062 1 0.87472 1 0.87875 1 0.88273 1 0.88663 1 0.89049 1 0.89427 1 0.898 1 0.90166 1 0.90525 1 0.90879 1 0.91225 1 0.91566 1 0.919 1 0.92228 1 0.92548 1 0.92864 1 0.93171 1 0.93473 1 0.93767 1 0.94056 1 0.94338 1 0.94612 1 0.94881 1 0.95143 1 0.95397 1 0.95646 1 0.95887 1 0.96123 1 0.9635 1 0.96571 1 0.96786 1 0.96993 1 0.97194 1 0.97388 1 0.97575 1 0.97756 1 0.97928 1 0.98096 1 0.98254 1 0.98407 1 0.98553 1 0.98692 1 0.98823 1 0.98949 1 0.99066 1 0.99177 1 0.99281 1 0.99378 1 0.99468 1 0.9955 1 0.99627 1 0.99696 1 0.99757 1 0.99812 1 0.99861 1 0.999 1 0.99935 1 0.99962 1 0.99981 1 0.99994 2 2 1 0.99989 1 0.99974 1 0.99952 1 0.99922 1 0.99885 1 0.99842 1 0.99791 1 0.99733 1 0.99668 1 0.99597 1 0.99518 1 0.99432 1 0.9934 1 0.99239 1 0.99133 1 0.9902 1 0.98898 1 0.98771 1 0.98636 1 0.98495 1 0.98346 1 0.98191 1 0.98029 1 0.97859 1 0.97683 1 0.975 1 0.97311 1 0.97113 1 0.9691 1 0.967 1 0.96483 1 0.96258 1 0.96028 1 0.9579 1 0.95546 1 0.95295 1 0.95038 1 0.94773 1 0.94502 1 0.94224 1 0.9394 1 0.93649 1 0.93351 1 0.93047 1 0.92737 1 0.9242 1 0.92095 1 0.91766 1 0.91429 1 0.91085 1 0.90737 1 0.9038 1 0.90018 1 0.8965 1 0.89274 1 0.88894 1 0.88506 1 0.88112 1 0.87713 1 0.87306 1 0.86894 1 0.86476 1 0.86052 1 0.85621 1 0.85184 1 0.84742 1 0.84294 1 0.83839 1 0.83379 1 0.82913 1 0.82441 1 0.81963 1 0.81479 1 0.8099 1 0.80495 1 0.79994 1 0.79488 1 0.78976 1 0.78459 1 0.77936 1 0.77407 1 0.76873 1 0.76334 1 0.75789 1 0.75239 1 0.74684 1 0.74123 1 0.73558 1 0.72986 1 0.7241 1 0.71829 1 0.71243 1 0.70651 1 0.70055 1 0.69454 1 0.68848 1 0.68237 1 0.67621 1 0.67 1 0.66375 1 0.65746 1 0.65111 1 0.64471 1 0.63828 1 0.6318 1 0.62527 1 0.6187 1 0.61209 1 0.60544 1 0.59873 1 0.59199 1 0.58521 1 0.57838 1 0.57152 1 0.56461 1 0.55767 1 0.55068 1 0.54366 1 0.5366 1 0.5295 1 0.52236 1 0.51519 1 0.50798 1 0.50074 1 0.49345 1 0.48614 1 0.47879 1 0.47141 1 0.46399 1 0.45654 1 0.44906 1 0.44155 1 0.434 1 0.42643 1 0.41882 1 0.41119 1 0.40353 1 0.39583 1 0.38812 1 0.38037 1 0.3726 1 0.36479 1 0.35698 1 0.34912 1 0.34124 1 0.33335 1 0.32543 1 0.31748 1 0.30951 1 0.30152 1 0.29351 1 0.28548 1 0.27743 1 0.26936 1 0.26127 1 0.25316 1 0.24503 1 0.23689 1 0.22873 1 0.22055 1 0.21237 1 0.20415 1 0.19593 1 0.1877 1 0.17945 1 0.1712 1 0.16291 1 0.15464 1 0.14633 1 0.13804 1 0.12971 1 0.1214 1 0.11306 1 0.10472 1 0.0964 1 0.088 1 0.0797 1 0.0713 1 0.0629 1 0.0545 1 0.0462 1 0.0378 1 0.0294 1 0.021 1 0.0126 1 4e-3v-4e-3l1 4e-3v-4e-3l1-0.0126 1-0.021 1-0.0293 1-0.0377 1-0.0461 1-0.0545 1-0.0629 1-0.0712 1-0.0796 1-0.088 1-0.0963 1-0.10467 1-0.113 1-0.12134 1-0.12966 1-0.13798 1-0.14628 1-0.15458 1-0.16286 1-0.17114 1-0.17939 1-0.18765 1-0.19587 1-0.20411 1-0.2123 1-0.2205 1-0.22868 1-0.23683 1-0.24498 1-0.25311 1-0.26121 1-0.2693 1-0.27738 1-0.28543 1-0.29346 1-0.30146 1-0.30946 1-0.31743 1-0.32537 1-0.3333 1-0.34119 1-0.34907 1-0.35692 1-0.36474 1-0.37255 1-0.38032 1-0.38806 1-0.39579 1-0.40347 1-0.41114 1-0.41877 1-0.42638 1-0.43395 1-0.4415 1-0.44901 1-0.45649 1-0.46394 1-0.47136 1-0.47874 1-0.48609 1-0.49341 1-0.50068 1-0.50793 1-0.51515 1-0.52231 1-0.52945 1-0.53656 1-0.54361 1-0.55064 1-0.55762 1-0.56456 1-0.57148 1-0.57833 1-0.58517 1-0.59194 1-0.59869 1-0.60539 1-0.61204 1-0.61866 1-0.62523 1-0.63175 1-0.63824 1-0.64467 1-0.65107 1-0.65741 1-0.66371 1-0.66996 1-0.67617 1-0.68233 1-0.68843 1-0.6945 1-0.70051 1-0.70648 1-0.71238 1-0.71826 1-0.72406 1-0.72982 1-0.73554 1-0.74119 1-0.7468 1-0.75236 1-0.75785 1-0.76331 1-0.76869 1-0.77404 1-0.77932 1-0.78455 1-0.78973 1-0.79485 1-0.79991 1-0.80491 1-0.80987 1-0.81476 1-0.8196 1-0.82438 1-0.82909 1-0.83376 1-0.83836 1-0.84291 1-0.84739 1-0.85181 1-0.85619 1-0.86048 1-0.86473 1-0.86892 1-0.87303 1-0.8771 1-0.8811 1-0.88503 1-0.88891 1-0.89272 1-0.89647 1-0.90016 1-0.90378 1-0.90734 1-0.91084 1-0.91426 1-0.91763 1-0.92094 1-0.92417 1-0.92735 1-0.93045 1-0.93349 1-0.93647 1-0.93938 1-0.94223 1-0.945 1-0.94771 1-0.95036 1-0.95293 1-0.95544 1-0.95789 1-0.96026 1-0.96257 1-0.96481 1-0.96699 1-0.96908 1-0.97113 1-0.97309 1-0.97499 1-0.97682 1-0.97858 1-0.98027 1-0.9819 1-0.98345 1-0.98494 1-0.98635 1-0.9877 1-0.98898 1-0.99019 1-0.99132 1-0.99239 1-0.99339 1-0.99431 1-0.99518 1-0.99596 1-0.99668 1-0.99733 1-0.99791 1-0.99841 1-0.99885 1-0.99921 1-0.99952 1-0.99974 1-0.99989 2-2 1-0.99994 1-0.99981 1-0.99962 1-0.99935 1-0.99901 1-0.99861 1-0.99812 1-0.99758 1-0.99696 1-0.99627 1-0.99551 1-0.99469 1-0.99378 1-0.99282 1-0.99178 1-0.99067 1-0.98949 1-0.98824 1-0.98693 1-0.98554 1-0.98408 1-0.98256 1-0.98096 1-0.9793 1-0.97756 1-0.97576 1-0.9739 1-0.97195 1-0.96995 1-0.96787 1-0.96573 1-0.96351 1-0.96124 1-0.95889 1-0.95647 1-0.954 1-0.95144 1-0.94883 1-0.94614 1-0.94339 1-0.94058 1-0.9377 1-0.93474 1-0.93174 1-0.92865 1-0.92551 1-0.9223 1-0.91902 1-0.91568 1-0.91228 1-0.90881 1-0.90528 1-0.90168 1-0.89802 1-0.8943 1-0.89051 1-0.88666 1-0.88275 1-0.87878 1-0.87475 1-0.87064 1-0.86649 1-0.86227 1-0.85799 1-0.85365 1-0.84925 1-0.84479 1-0.84027 1-0.83569 1-0.83106 1-0.82636 1-0.8216 1-0.81679 1-0.81192 1-0.807 1-0.80201 1-0.79697 1-0.79188 1-0.78672 1-0.78152 1-0.77626 1-0.77093 1-0.76557 1-0.76014 1-0.75466 1-0.74914 1-0.74354 1-0.73791 1-0.73222 1-0.72648 1-0.72069 1-0.71485 1-0.70895 1-0.70302 1-0.69702 1-0.69098 1-0.68488 1-0.67876 1-0.67256 1-0.66633 1-0.66006 1-0.65372 1-0.64736 1-0.64093 1-0.63448 1-0.62796 1-0.62141 1-0.61482 1-0.60818 1-0.6015 1-0.59477 1-0.588 1-0.5812 1-0.57435 1-0.56746 1-0.56053 1-0.55357 1-0.54656 1-0.53951 1-0.53242 1-0.52531 1-0.51815 1-0.51095 1-0.50372 1-0.49646 1-0.48916 1-0.48182 1-0.47445 1-0.46705 1-0.45961 1-0.45214 1-0.44465 1-0.43711 1-0.42955 1-0.42196 1-0.41434 1-0.40668 1-0.39901 1-0.3913 1-0.38356 1-0.3758 1-0.36801 1-0.3602 1-0.35236 1-0.34449 1-0.3366 1-0.32869 1-0.32076 1-0.31279 1-0.30482 1-0.29681 1-0.28879 1-0.28075 1-0.27268 1-0.2646 1-0.2565 1-0.24839 1-0.24024 1-0.23209 1-0.22392 1-0.21574 1-0.20754 1-0.19932 1-0.19109 1-0.18285 1-0.17459 1-0.16633 1-0.15804 1-0.14976 1-0.14145 1-0.13315 1-0.12482 1-0.11649 1-0.10816 1-0.0998 1-0.0915 1-0.0831 1-0.0747 1-0.0664 1-0.058 1-0.0496 1-0.0412 1-0.0328 1-0.0245 1-0.0161 1-8e-3v7.1e-4l1-1e-3v1e-3l1 9e-3 1 0.0175 1 0.0259 1 0.0343 1 0.0427 1 0.051 1 0.0594 1 0.0678 1 0.0762 1 0.0845 1 0.0929 1 0.10123 1 0.10957 1 0.11791 1 0.12623 1 0.13456 1 0.14286 1 0.15116 1 0.15946 1 0.16773 1 0.17599 1 0.18425 1 0.19249 1 0.20072 1 0.20893 1 0.21712 1 0.22531 1 0.23348 1 0.24163 1 0.24976 1 0.25788 1 0.26597 1 0.27406 1 0.28211 1 0.29015 1 0.29818 1 0.30617 1 0.31415 1 0.3221 1 0.33004 1 0.33794 1 0.34583 1 0.35369 1 0.36152 1 0.36934 1 0.37712 1 0.38488 1 0.39261 1 0.40031 1 0.40799 1 0.41563 1 0.42325 1 0.43084 1 0.43839 1 0.44592 1 0.45342 1 0.46087 1 0.46831 1 0.4757 1 0.48307 1 0.4904 1 0.49769 1 0.50495 1 0.51218 1 0.51937 1 0.52652 1 0.53363 1 0.54071 1 0.54775 1 0.55475 1 0.56171 1 0.56863 1 0.57552 1 0.58235 1 0.58916 1 0.59592 1 0.60263 1 0.60931 1 0.61594 1 0.62253 1 0.62907 1 0.63557 1 0.64203 1 0.64844 1 0.65481 1 0.66112 1 0.66739 1 0.67362 1 0.6798 1 0.68593 1 0.692 1 0.69804 1 0.70403 1 0.70996 1 0.71584 1 0.72168 1 0.72745 1 0.73319 1 0.73887 1 0.7445 1 0.75008 1 0.75559 1 0.76107 1 0.76648 1 0.77185 1 0.77715 1 0.7824 1 0.78761 1 0.79274 1 0.79783 1 0.80286 1 0.80784 1 0.81275 1 0.81762 1 0.82241 1 0.82716 1 0.83185 1 0.83647 1 0.84104 1 0.84555 1 0.85 1 0.85439 1 0.85873 1 0.86299 1 0.8672 1 0.87134 1 0.87544 1 0.87945 1 0.88342 1 0.88732 1 0.89116 1 0.89494 1 0.89864 1 0.9023 1 0.90588 1 0.90941 1 0.91286 1 0.91625 1 0.91958 1 0.92285 1 0.92605 1 0.92918 1 0.93225 1 0.93525 1 0.93819 1 0.94106 1 0.94387 1 0.9466 1 0.94928 1 0.95188 1 0.95441 1 0.95689 1 0.9593 1 0.96162 1 0.9639 1 0.9661 1 0.96823 1 0.97029 1 0.97229 1 0.97421 1 0.97608 1 0.97786 1 0.97959 1 0.98123 1 0.98282 1 0.98434 1 0.98578 1 0.98715 1 0.98846 1 0.9897 1 0.99086 1 0.99196 1 0.99299 1 0.99394 1 0.99483 1 0.99564 1 0.9964 1 0.99707 1 0.99767 1 0.99822 1 0.99868 1 0.99907 1 0.9994 1 0.99965 1 0.99984 1 0.99995 2 2 1 0.99987 1 0.99971 1 0.99947 1 0.99916 1 0.99878 1 0.99833 1 0.99781 1 0.99722 1 0.99657 1 0.99583 1 0.99503 1 0.99417 1 0.99322 1 0.99222 1 0.99113 1 0.98999 1 0.98876 1 0.98748 1 0.98612 1 0.98469 1 0.98319 1 0.98163 1 0.97999 1 0.97829 1 0.97651 1 0.97467 1 0.97276 1 0.97078 1 0.96874 1 0.96662 1 0.96443 1 0.96219 1 0.95986 1 0.95748 1 0.95502 1 0.9525 1 0.94991 1 0.94726 1 0.94453 1 0.94175 1 0.93889 1 0.93597 1 0.93298 1 0.92993 1 0.92681 1 0.92363 1 0.92038 1 0.91706 1 0.91369 1 0.91025 1 0.90674 1 0.90317 1 0.89953 1 0.89584 1 0.89208 1 0.88825 1 0.88437 1 0.88043 1 0.87641 1 0.87234 1 0.86821 1 0.86401 1 0.85976 1 0.85545 1 0.85107 1 0.84663 1 0.84214 1 0.83758 1 0.83297 1 0.8283 1 0.82357 1 0.81878 1 0.81394 1 0.80903 1 0.80407 1 0.79905 1 0.79398 1 0.78886 1 0.78366 1 0.77843 1 0.77314 1 0.76778 1 0.76238 1 0.75693 1 0.75141 1 0.74586 1 0.74023 1 0.73457 1 0.72885 1 0.72308 1 0.71726 1 0.71139 1 0.70546 1 0.6995 1 0.69347 1 0.6874 1 0.68129 1 0.67512 1 0.6689 1 0.66265 1 0.65633 1 0.64999 1 0.64358 1 0.63714 1 0.63065 1 0.62412 1 0.61753 1 0.61092 1 0.60425 1 0.59755 1 0.5908 1 0.584 1 0.57718 1 0.5703 1 0.56339 1 0.55644 1 0.54945 1 0.54241 1 0.53535 1 0.52825 1 0.5211 1 0.51392 1 0.5067 1 0.49945 1 0.49217 1 0.48485 1 0.47748 1 0.4701 1 0.46268 1 0.45523 1 0.44773 1 0.44022 1 0.43267 1 0.42509 1 0.41748 1 0.40984 1 0.40217 1 0.39447 1 0.38676 1 0.379 1 0.37122 1 0.36342 1 0.35559 1 0.34773 1 0.33985 1 0.33196 1 0.32402 1 0.31608 1 0.3081 1 0.30011 1 0.2921 1 0.28406 1 0.276 1 0.26794 1 0.25984 1 0.25172 1 0.2436 1 0.23545 1 0.22729 1 0.21911 1 0.21091 1 0.20271 1 0.19448 1 0.18625 1 0.17799 1 0.16973 1 0.16146 1 0.15317 1 0.14487 1 0.13657 1 0.12825 1 0.11992 1 0.11159 1 0.10325 1 0.0949 1 0.0865 1 0.0782 1 0.0698 1 0.0614 1 0.0531 1 0.0447 1 0.0363 1 0.0279 1 0.0195 1 0.0111 1 3e-3v-1.3e-4l1-6e-3 1-0.014 1-0.0224 1-0.0308 1-0.0392 1-0.0476 1-0.056 1-0.0643 1-0.0727 1-0.0811 1-0.0894 1-0.0978 1-0.10614 1-0.11447 1-0.12281 1-0.13113 1-0.13944 1-0.14775 1-0.15604 1-0.16433 1-0.17259 1-0.18085 1-0.1891 1-0.19733 1-0.20555 1-0.21375 1-0.22195 1-0.23011 1-0.23828 1-0.24641 1-0.25454 1-0.26264 1-0.27073 1-0.2788 1-0.28684 1-0.29488 1-0.30288 1-0.31086 1-0.31883 1-0.32677 1-0.33469 1-0.34259 1-0.35046 1-0.3583 1-0.36612 1-0.37392 1-0.38169 1-0.38943 1-0.39714 1-0.40483 1-0.41249 1-0.42011 1-0.42772 1-0.43529 1-0.44282 1-0.45033 1-0.45781 1-0.46525 1-0.47266 1-0.48004 1-0.48739 1-0.49469 1-0.50197 1-0.5092 1-0.51641 1-0.52358 1-0.53071 1-0.5378 1-0.54485 1-0.55188 1-0.55885 1-0.56578 1-0.57269 1-0.57955 1-0.58636 1-0.59314 1-0.59987 1-0.60656 1-0.61322 1-0.61982 1-0.62638 1-0.6329 1-0.63938 1-0.6458 1-0.65219 1-0.65853 1-0.66482 1-0.67106 1-0.67726 1-0.6834 1-0.68951 1-0.69557 1-0.70156 1-0.70752 1-0.71343 1-0.71928 1-0.72508 1-0.73084 1-0.73654 1-0.74219 1-0.74778 1-0.75333 1-0.75882 1-0.76426 1-0.76964 1-0.77497 1-0.78025 1-0.78547 1-0.79063 1-0.79575 1-0.8008 1-0.80579 1-0.81074 1-0.81561 1-0.82045 1-0.82521 1-0.82993 1-0.83457 1-0.83917 1-0.8437 1-0.84817 1-0.8526 1-0.85694 1-0.86124 1-0.86547 1-0.86965 1-0.87376 1-0.87781 1-0.88179 1-0.88572 1-0.88959 1-0.89339 1-0.89712 1-0.90081 1-0.90441 1-0.90796 1-0.91144 1-0.91487 1-0.91822 1-0.92151 1-0.92474 1-0.9279 1-0.93099 1-0.93402 1-0.93699 1-0.93989 1-0.94272 1-0.94548 1-0.94818 1-0.95082 1-0.95338 1-0.95588 1-0.95831 1-0.96068 1-0.96297 1-0.9652 1-0.96735 1-0.96946 1-0.97147 1-0.97343 1-0.97532 1-0.97713 1-0.97889 1-0.98056 1-0.98218 1-0.98372 1-0.98519 1-0.9866 1-0.98793 1-0.9892 1-0.99039 1-0.99151 1-0.99257 1-0.99356 1-0.99447 1-0.99532 1-0.9961 1-0.9968 1-0.99743 1-0.998 1-0.9985 1-0.99892 1-0.99927 1-0.99956 1-0.99977 1-0.99991" stroke="#2e7d32" paint-order="fill stroke markers"/>
    <path d="m0 375.4 1-1.504 1-1.5259 1-1.5474 1-1.5684 1-1.589 1-1.6092 1-1.6289 1-1.6481 1-1.6669 1-1.6852 1-1.7031 1-1.7204 1-1.7373 1-1.7537 1-1.7696 1-1.785 1-1.7998 1-1.8142 1-1.8281 1-1.8414 1-1.8543 1-1.8666 1-1.8784 1-1.8896 1-1.9004 1-1.9106 1-1.9202 1-1.9293 1-1.9379 1-1.9459 1-1.9534 1-1.9603 1-1.9667 1-1.9725 1-1.9778 1-1.9825 1-1.9866 1-1.9902 1-1.9933 1-1.9957 1-1.9976 1-1.999 1-1.9998 1-2 1-1.9996 1-1.9987 1-1.9972 1-1.9952 1-1.9926 1-1.9894 1-1.9857 1-1.9815 1-1.9766 1-1.9712 1-1.9653 1-1.9588 1-1.9517 1-1.9441 1-1.936 1-1.9273 1-1.918 1-1.9083 1-1.898 1-1.8871 1-1.8757 1-1.8638 1-1.8514 1-1.8384 1-1.825 1-1.811 1-1.7965 1-1.7815 1-1.766 1-1.75 1-1.7335 1-1.7165 1-1.699 1-1.6811 1-1.6627 1-1.6438 1-1.6244 1-1.6046 1-1.5844 1-1.5637 1-1.5425 1-1.521 1-1.4989 1-1.4765 1-1.4537 1-1.4304 1-1.4068 1-1.3827 1-1.3583 1-1.3334 1-1.3082 1-1.2827 1-1.2567 1-1.2304 1-1.2038 1-1.1768 1-1.1496 1-1.1219 1-1.094 1-1.0657 1-1.0372 1-1.0083 1-0.97922 1-0.94981 1-0.92014 1-0.89021 1-0.86004 1-0.82961 1-0.79896 1-0.76809 1-0.73698 1-0.70569 1-0.67418 1-0.64249 1-0.61062 1-0.57857 1-0.54636 1-0.51401 1-0.4815 1-0.44885 1-0.41609 1-0.3832 1-0.35021 1-0.31712 1-0.28394 1-0.25067 1-0.21735 1-0.18395 1-0.15051 1-0.11702 1-0.0835 1-0.0499 1-0.0164v1e-5l1 0.0172 1 0.0507 1 0.0843 1 0.11779 1 0.15127 1 0.18471 1 0.2181 1 0.25144 1 0.28469 1 0.31787 1 0.35097 1 0.38395 1 0.41684 1 0.4496 1 0.48224 1 0.51474 1 0.5471 1 0.57931 1 0.61134 1 0.64322 1 0.6749 1 0.7064 1 0.73769 1 0.76879 1 0.79966 1 0.83031 1 0.86073 1 0.8909 1 0.92082 1 0.95048 1 0.97988 1 1.009 1 1.0378 1 1.0664 1 1.0946 1 1.1226 1 1.1502 1 1.1775 1 1.2044 1 1.231 1 1.2573 1 1.2832 1 1.3088 1 1.334 1 1.3588 1 1.3832 1 1.4073 1 1.4309 1 1.4542 1 1.477 1 1.4994 1 1.5214 1 1.543 1 1.5642 1 1.5848 1 1.6051 1 1.6249 1 1.6442 1 1.6631 1 1.6815 1 1.6994 1 1.7169 1 1.7339 1 1.7504 1 1.7663 1 1.7818 1 1.7968 1 1.8113 1 1.8253 1 1.8387 1 1.8517 1 1.8641 1 1.876 1 1.8874 1 1.8982 1 1.9085 1 1.9183 1 1.9275 1 1.9362 1 1.9443 1 1.9519 1 1.9589 1 1.9654 1 1.9714 1 1.9767 1 1.9816 1 1.9858 1 1.9895 1 1.9927 1 1.9953 1 1.9973 1 1.9987 1 1.9996 1 2 1 1.9997 1 1.999 1 1.9976 1 1.9957 1 1.9932 1 1.9902 1 1.9866 1 1.9824 1 1.9777 1 1.9724 1 1.9666 1 1.9602 1 1.9532 1 1.9458 1 1.9377 1 1.9291 1 1.92 1 1.9103 1 1.9001 1 1.8894 1 1.8781 1 1.8663 1 1.854 1 1.8412 1 1.8278 1 1.8139 1 1.7995 1 1.7846 1 1.7692 1 1.7533 1 1.7369 1 1.72 1 1.7027 1 1.6848 1 1.6665 1 1.6477 1 1.6285 1 1.6088 1 1.5886 1 1.568 1 1.5469 1 1.5254 1 1.5035 1 1.4812 1 1.4584 1 1.4352 1 1.4116 1 1.3877 1 1.3633 1 1.3386 1 1.3134 1 1.288 1 1.2621 1 1.2359 1 1.2093 1 1.1824 1 1.1552 1 1.1276 1 1.0998 1 1.0716 1 1.0431 1 1.0143 1 0.98523 1 0.95589 1 0.92627 1 0.8964 1 0.86627 1 0.83589 1 0.8053 1 0.77445 1 0.74341 1 0.71214 1 0.68069 1 0.64903 1 0.61719 1 0.58518 1 0.55301 1 0.52068 1 0.48821 1 0.45558 1 0.42285 1 0.38998 1 0.35701 1 0.32394 1 0.29078 1 0.25753 1 0.22421 1 0.19083 1 0.1574 1 0.12391 1 0.0904 1 0.0569 1 0.0233v-0.01039l1 0.0109v-0.0109l1-0.0438 1-0.0774 1-0.11089 1-0.14438 1-0.17783 1-0.21123 1-0.24458 1-0.27785 1-0.31105 1-0.34416 1-0.37717 1-0.41007 1-0.44287 1-0.47553 1-0.50806 1-0.54045 1-0.57269 1-0.60476 1-0.63667 1-0.66839 1-0.69993 1-0.73127 1-0.7624 1-0.79333 1-0.82401 1-0.85449 1-0.8847 1-0.91469 1-0.94439 1-0.97385 1-1.003 1-1.0319 1-1.0605 1-1.0888 1-1.1168 1-1.1445 1-1.1719 1-1.1989 1-1.2256 1-1.2519 1-1.2779 1-1.3036 1-1.3288 1-1.3537 1-1.3782 1-1.4024 1-1.4261 1-1.4494 1-1.4724 1-1.4949 1-1.5169 1-1.5386 1-1.5598 1-1.5806 1-1.601 1-1.6208 1-1.6403 1-1.6592 1-1.6778 1-1.6958 1-1.7133 1-1.7304 1-1.747 1-1.7631 1-1.7787 1-1.7938 1-1.8084 1-1.8224 1-1.836 1-1.8491 1-1.8616 1-1.8736 1-1.8851 1-1.896 1-1.9064 1-1.9163 1-1.9256 1-1.9344 1-1.9427 1-1.9504 1-1.9575 1-1.9641 1-1.9702 1-1.9757 1-1.9806 1-1.985 1-1.9888 1-1.9921 1-1.9948 1-1.9969 1-1.9985 1-1.9995 1-2 1-1.9998 1-1.9992 1-1.9979 1-1.9961 1-1.9938 1-1.9908 1-1.9873 1-1.9833 1-1.9787 1-1.9735 1-1.9678 1-1.9615 1-1.9547 1-1.9473 1-1.9394 1-1.9309 1-1.9219 1-1.9124 1-1.9023 1-1.8916 1-1.8805 1-1.8688 1-1.8566 1-1.8438 1-1.8306 1-1.8168 1-1.8025 1-1.7877 1-1.7724 1-1.7566 1-1.7403 1-1.7236 1-1.7063 1-1.6885 1-1.6703 1-1.6516 1-1.6325 1-1.6128 1-1.5928 1-1.5722 1-1.5513 1-1.5299 1-1.508 1-1.4858 1-1.4631 1-1.44 1-1.4165 1-1.3927 1-1.3684 1-1.3437 1-1.3187 1-1.2932 1-1.2674 1-1.2413 1-1.2148 1-1.188 1-1.1608 1-1.1333 1-1.1055 1-1.0774 1-1.049 1-1.0202 1-0.99124 1-0.96195 1-0.93239 1-0.90257 1-0.87249 1-0.84218 1-0.81161 1-0.78082 1-0.74982 1-0.71859 1-0.68718 1-0.65556 1-0.62377 1-0.59179 1-0.55964 1-0.52735 1-0.4949 1-0.46231 1-0.4296 1-0.39676 1-0.36381 1-0.33075 1-0.29761 1-0.26438 1-0.23108 1-0.19771 1-0.16429 1-0.13081 1-0.0973 1-0.0638 1-0.0302v3e-3l1-6e-3v6e-3l1 0.0369 1 0.0705 1 0.10398 1 0.13748 1 0.17095 1 0.20436 1 0.23772 1 0.27101 1 0.30422 1 0.33735 1 0.37038 1 0.40331 1 0.43612 1 0.46882 1 0.50137 1 0.5338 1 0.56606 1 0.59817 1 0.63012 1 0.66187 1 0.69345 1 0.72484 1 0.75601 1 0.78697 1 0.81772 1 0.84823 1 0.87851 1 0.90853 1 0.9383 1 0.9678 1 0.99704 1 1.026 1 1.0546 1 1.083 1 1.1111 1 1.1388 1 1.1663 1 1.1934 1 1.2201 1 1.2466 1 1.2726 1 1.2983 1 1.3237 1 1.3486 1 1.3732 1 1.3974 1 1.4213 1 1.4447 1 1.4677 1 1.4903 1 1.5124 1 1.5342 1 1.5555 1 1.5764 1 1.5968 1 1.6168 1 1.6363 1 1.6554 1 1.674 1 1.6921 1 1.7098 1 1.7269 1 1.7436 1 1.7598 1 1.7755 1 1.7907 1 1.8054 1 1.8196 1 1.8333 1 1.8464 1 1.859 1 1.8712 1 1.8828 1 1.8938 1 1.9043 1 1.9143 1 1.9238 1 1.9327 1 1.941 1 1.9488 1 1.9561 1 1.9628 1 1.969 1 1.9746 1 1.9796 1 1.9842 1 1.9881 1 1.9915 1 1.9943 1 1.9965 1 1.9982 1 1.9993 1 1.9999 1 1.9999 1 1.9994 1 1.9982 1 1.9965 1 1.9943 1 1.9915 1 1.9881 1 1.9842 1 1.9797 1 1.9746 1 1.969 1 1.9629 1 1.9562 1 1.9489 1 1.9411 1 1.9327 1 1.9238 1 1.9144 1 1.9044 1 1.8939 1 1.8828 1 1.8712 1 1.8591 1 1.8465 1 1.8334 1 1.8197 1 1.8055 1 1.7908 1 1.7756 1 1.7599 1 1.7437 1 1.727 1 1.7099 1 1.6922 1 1.6741 1 1.6555 1 1.6364 1 1.6169 1 1.5969 1 1.5765 1 1.5556 1 1.5343 1 1.5126 1 1.4904 1 1.4678 1 1.4448 1 1.4214 1 1.3976 1 1.3734 1 1.3488 1 1.3238 1 1.2985 1 1.2728 1 1.2467 1 1.2203 1 1.1935 1 1.1664 1 1.139 1 1.1113 1 1.0832 1 1.0548 1 1.0262 1 0.99723 1 0.96801 1 0.93849 1 0.90873 1 0.87871 1 0.84843 1 0.81792 1 0.78719 1 0.75621 1 0.72505 1 0.69366 1 0.66209 1 0.63032 1 0.59839 1 0.56627 1 0.53401 1 0.5016 1 0.46903 1 0.43634 1 0.40353 1 0.3706 1 0.33757 1 0.30444 1 0.27123 1 0.23794 1 0.20459 1 0.17117 1 0.13771 1 0.1042 1 0.0707 1 0.0371 1 6e-3v-3e-3l1-0.03 1-0.0636 1-0.0971 1-0.13059 1-0.16406 1-0.19749 1-0.23085 1-0.26416 1-0.29739 1-0.33054 1-0.36358 1-0.39654 1-0.42938 1-0.4621 1-0.49468 1-0.52713 1-0.55943 1-0.59158 1-0.62355 1-0.65535 1-0.68697 1-0.71838 1-0.74961 1-0.78062 1-0.81141 1-0.84197 1-0.87229 1-0.90237 1-0.93219 1-0.96175 1-0.99105 1-1.02 1-1.0488 1-1.0772 1-1.1053 1-1.1332 1-1.1606 1-1.1878 1-1.2146 1-1.2411 1-1.2673 1-1.2931 1-1.3185 1-1.3435 1-1.3682 1-1.3925 1-1.4164 1-1.4399 1-1.463 1-1.4856 1-1.5079 1-1.5297 1-1.5511 1-1.5721 1-1.5926 1-1.6127 1-1.6323 1-1.6515 1-1.6702 1-1.6884 1-1.7062 1-1.7234 1-1.7402 1-1.7565 1-1.7723 1-1.7876 1-1.8024 1-1.8167 1-1.8305 1-1.8438 1-1.8565 1-1.8687 1-1.8804 1-1.8916 1-1.9022 1-1.9123 1-1.9219 1-1.9309 1-1.9394 1-1.9473 1-1.9547 1-1.9615 1-1.9678 1-1.9735 1-1.9787 1-1.9833 1-1.9873 1-1.9908 1-1.9937 1-1.9961 1-1.9979 1-1.9992 1-1.9998 1-2 1-1.9995 1-1.9985 1-1.9969 1-1.9948 1-1.9921 1-1.9888 1-1.985 1-1.9806 1-1.9757 1-1.9702 1-1.9642 1-1.9576 1-1.9504 1-1.9427 1-1.9345 1-1.9257 1-1.9164 1-1.9065 1-1.8961 1-1.8852 1-1.8737 1-1.8617 1-1.8492 1-1.8361 1-1.8225 1-1.8085 1-1.7939 1-1.7788 1-1.7632 1-1.7471 1-1.7305 1-1.7134 1-1.6959 1-1.6779 1-1.6594 1-1.6404 1-1.621 1-1.6011 1-1.5808 1-1.56 1-1.5388 1-1.5171 1-1.495 1-1.4725 1-1.4496 1-1.4263 1-1.4025 1-1.3784 1-1.3539 1-1.329 1-1.3037 1-1.2781 1-1.2521 1-1.2258 1-1.1991 1-1.1721 1-1.1447 1-1.117 1-1.089 1-1.0607 1-1.0321 1-1.0032 1-0.97405 1-0.94459 1-0.91488 1-0.88491 1-0.85468 1-0.82423 1-0.79353 1-0.76261 1-0.73148 1-0.70013 1-0.66861 1-0.63688 1-0.60497 1-0.5729 1-0.54067 1-0.50828 1-0.47575 1-0.44308 1-0.4103 1-0.37739 1-0.34437 1-0.31127 1-0.27808 1-0.2448 1-0.21145 1-0.17806 1-0.1446 1-0.11111 1-0.0776 1-0.044 1-0.0111v6e-4l1 0.0231 1 0.0566 1 0.0902 1 0.1237 1 0.15717 1 0.19061 1 0.22399 1 0.25731 1 0.29055 1 0.32372 1 0.35679 1 0.38976 1 0.42263 1 0.45537 1 0.48798 1 0.52047 1 0.55279 1 0.58497 1 0.61698 1 0.64882 1 0.68047 1 0.71194 1 0.7432 1 0.77425 1 0.80508 1 0.8357 1 0.86607 1 0.89619 1 0.92608 1 0.95568 1 0.98504 1 1.0141 1 1.0429 1 1.0714 1 1.0996 1 1.1274 1 1.155 1 1.1822 1 1.2092 1 1.2357 1 1.2619 1 1.2878 1 1.3133 1 1.3384 1 1.3632 1 1.3875 1 1.4115 1 1.4351 1 1.4582 1 1.481 1 1.5034 1 1.5253 1 1.5468 1 1.5678 1 1.5884 1 1.6086 1 1.6283 1 1.6476 1 1.6664 1 1.6847 1 1.7026 1 1.7199 1 1.7368 1 1.7532 1 1.7691 1 1.7845 1 1.7994 1 1.8138 1 1.8277 1 1.8411 1 1.8539 1 1.8662 1 1.878 1 1.8893 1 1.9001 1 1.9103 1 1.9199 1 1.9291 1 1.9376 1 1.9457 1 1.9532 1 1.9601 1 1.9665 1 1.9724 1 1.9776 1 1.9824 1 1.9865 1 1.9901 1 1.9932 1 1.9957 1 1.9976 1 1.9989 1 1.9997 1 2 1 1.9996 1 1.9988 1 1.9973 1 1.9953 1 1.9927 1 1.9896 1 1.9859 1 1.9816 1 1.9768 1 1.9714 1 1.9655 1 1.959 1 1.952 1 1.9444 1 1.9362 1 1.9276 1 1.9183 1 1.9086 1 1.8983 1 1.8874 1 1.8761 1 1.8642 1 1.8518 1 1.8388 1 1.8254 1 1.8114 1 1.7969 1 1.7819 1 1.7664 1 1.7505 1 1.734 1 1.717 1 1.6996 1 1.6816 1 1.6632 1 1.6444 1 1.625 1 1.6052 1 1.585 1 1.5643 1 1.5432 1 1.5216 1 1.4996 1 1.4772 1 1.4544 1 1.4311 1 1.4074 1 1.3834 1 1.359 1 1.3342 1 1.309 1 1.2834 1 1.2575 1 1.2312 1 1.2046 1 1.1776 1 1.1504 1 1.1227 1 1.0948 1 1.0666 1 1.038 1 1.0092 1 0.98007 1 0.95068 1 0.92102 1 0.8911 1 0.86093 1 0.83051 1 0.79987 1 0.76899 1 0.73791 1 0.70661 1 0.67511 1 0.64342 1 0.61156 1 0.57952 1 0.54732 1 0.51496 1 0.48245 1 0.44982 1 0.41706 1 0.38417 1 0.35118 1 0.3181 1 0.28491 1 0.25166 1 0.21833 1 0.18493 1 0.1515 1 0.118 1 0.0845 1 0.0509 1 0.0174v-0.0162l1 0.0162v-0.0162l1-0.0497 1-0.0833 1-0.1168 1-0.15028 1-0.18373 1-0.21712 1-0.25046 1-0.28371 1-0.3169 1-0.34999 1-0.38298 1-0.41587 1-0.44864 1-0.48128 1-0.51379 1-0.54615 1-0.57836 1-0.6104 1-0.64228 1-0.67397 1-0.70547 1-0.73678 1-0.76788 1-0.79875 1-0.82942 1-0.85983 1-0.89001 1-0.91995 1-0.94961 1-0.97902 1-1.0081 1-1.037 1-1.0655 1-1.0938 1-1.1217 1-1.1494 1-1.1767 1-1.2036 1-1.2303 1-1.2566 1-1.2825 1-1.3081 1-1.3333 1-1.3581 1-1.3825 1-1.4066 1-1.4303 1-1.4535 1-1.4764 1-1.4988 1-1.5208 1-1.5424 1-1.5635 1-1.5842 1-1.6045 1-1.6243 1-1.6437 1-1.6625 1-1.681 1-1.6989 1-1.7164 1-1.7334 1-1.7499 1-1.7659 1-1.7814 1-1.7964 1-1.8109 1-1.8249 1-1.8384 1-1.8513 1-1.8637 1-1.8757 1-1.887 1-1.8979 1-1.9082 1-1.918 1-1.9272 1-1.9359 1-1.9441 1-1.9517 1-1.9587 1-1.9652 1-1.9712 1-1.9766 1-1.9814 1-1.9857 1-1.9894 1-1.9926 1-1.9952 1-1.9972 1-1.9987 1-1.9996 1-2 1-1.9998 1-1.999 1-1.9976 1-1.9957 1-1.9933 1-1.9902 1-1.9867 1-1.9825 1-1.9778 1-1.9726 1-1.9667 1-1.9604 1-1.9534 1-1.946 1-1.938 1-1.9294 1-1.9203 1-1.9106 1-1.9004 1-1.8897 1-1.8785 1-1.8667 1-1.8544 1-1.8415 1-1.8282 1-1.8143 1-1.7999 1-1.7851 1-1.7697 1-1.7538 1-1.7374 1-1.7205 1-1.7032 1-1.6854 1-1.667 1-1.6483 1-1.629 1-1.6093 1-1.5892 1-1.5686 1-1.5476 1-1.5261 1-1.5042 1-1.4818 1-1.4591 1-1.4359 1-1.4124 1-1.3884 1-1.364 1-1.3393 1-1.3142 1-1.2887 1-1.2629 1-1.2367 1-1.2101 1-1.1832 1-1.156 1-1.1284 1-1.1006 1-1.0724 1-1.0439 1-1.0152 1-0.98609 1-0.95675 1-0.92715 1-0.89728 1-0.86716 1-0.83679 1-0.8062 1-0.77537 1-0.74432 1-0.71307 1-0.68161 1-0.64997 1-0.61813 1-0.58613 1-0.55396 1-0.52163 1-0.48916 1-0.45655 1-0.42381 1-0.39096 1-0.35798 1-0.32491 1-0.29176 1-0.25851 1-0.22519 1-0.19182 1-0.15838 1-0.1249 1-0.0914 1-0.0579 1-0.0243v9e-3l1-0.0101v0.0101l1 0.0428 1 0.0764 1 0.10989 1 0.1434 1 0.17684 1 0.21025 1 0.2436 1 0.27687 1 0.31008 1 0.34318 1 0.3762 1 0.40911 1 0.4419 1 0.47457 1 0.50711 1 0.5395 1 0.57174 1 0.60382 1 0.63573 1 0.66746 1 0.699 1 0.73035 1 0.76149 1 0.79242 1 0.82311 1 0.85359 1 0.88382 1 0.91381 1 0.94352 1 0.97299 1 1.0022 1 1.0311 1 1.0597 1 1.088 1 1.116 1 1.1437 1 1.1711 1 1.1981 1 1.2248 1 1.2512 1 1.2772 1 1.3028 1 1.3281 1 1.353 1 1.3775 1 1.4017 1 1.4254 1 1.4488 1 1.4717 1 1.4942 1 1.5163 1 1.538 1 1.5592 1 1.58 1 1.6004 1 1.6203 1 1.6397 1 1.6587 1 1.6772 1 1.6953 1 1.7128 1 1.7299 1 1.7465 1 1.7626 1 1.7782 1 1.7933 1 1.8079 1 1.822 1 1.8356 1 1.8487 1 1.8612 1 1.8732 1 1.8847 1 1.8957 1 1.9061 1 1.916 1 1.9254 1 1.9342 1 1.9424 1 1.9502 1 1.9573 1 1.964 1 1.97 1 1.9755 1 1.9805 1 1.9849 1 1.9887 1 1.992 1 1.9947 1 1.9969 1 1.9984 1 1.9995 1 2 1 1.9998 1 1.9992 1 1.998 1 1.9962 1 1.9938 1 1.9909 1 1.9874 1 1.9834 1 1.9788 1 1.9737 1 1.968 1 1.9617 1 1.9549 1 1.9476 1 1.9396 1 1.9312 1 1.9222 1 1.9127 1 1.9026 1 1.892 1 1.8808 1 1.8692 1 1.857 1 1.8442 1 1.831 1 1.8172 1 1.8029 1 1.7882 1 1.7729 1 1.7571 1 1.7408 1 1.7241 1 1.7068 1 1.6891 1 1.6709 1 1.6522 1 1.633 1 1.6134 1 1.5934 1 1.5729 1 1.5519 1 1.5305 1 1.5087 1 1.4865 1 1.4638 1 1.4407 1 1.4172 1 1.3934 1 1.3691 1 1.3444 1 1.3194 1 1.294 1 1.2682 1 1.2421 1 1.2156 1 1.1888 1 1.1616 1 1.1341 1 1.1064 1 1.0782 1 1.0498 1 1.0211 1 0.9921 1 0.96282 1 0.93326 1 0.90345 1 0.87339 1 0.84306 1 0.81252 1 0.78173 1 0.75073 1 0.71952 1 0.68811 1 0.65649 1 0.62471 1 0.59273 1 0.56059 1 0.52831 1 0.49585 1 0.46328 1 0.43056 1 0.39773 1 0.36478 1 0.33173 1 0.29859 1 0.26536 1 0.23206 1 0.19869 1 0.16527 1 0.1318 1 0.0983 1 0.0648 1 0.0312v-2e-3l1 5e-3v-5e-3l1-0.0359 1-0.0695 1-0.103 1-0.1365 1-0.16996 1-0.20338 1-0.23673 1-0.27003 1-0.30325 1-0.33637 1-0.36941 1-0.40234 1-0.43516 1-0.46786 1-0.50041 1-0.53285 1-0.56511 1-0.59723 1-0.62917 1-0.66095 1-0.69252 1-0.72391 1-0.7551 1-0.78607 1-0.81681 1-0.84734 1-0.87761 1-0.90765 1-0.93743 1-0.96694 1-0.99619 1-1.0251 1-1.0538 1-1.0822 1-1.1103 1-1.138 1-1.1655 1-1.1926 1-1.2193 1-1.2458 1-1.2719 1-1.2976 1-1.3229 1-1.3479 1-1.3725 1-1.3967 1-1.4206 1-1.444 1-1.467 1-1.4896 1-1.5118 1-1.5335 1-1.5549 1-1.5758 1-1.5962 1-1.6162 1-1.6358 1-1.6548 1-1.6734 1-1.6916 1-1.7092 1-1.7264 1-1.7431 1-1.7593 1-1.7751 1-1.7903 1-1.805 1-1.8192 1-1.8329 1-1.846 1-1.8587 1-1.8708 1-1.8824 1-1.8935 1-1.904 1-1.914 1-1.9235 1-1.9324 1-1.9408 1-1.9486 1-1.9559 1-1.9626 1-1.9688 1-1.9744 1-1.9795 1-1.984 1-1.988 1-1.9914 1-1.9942 1-1.9965 1-1.9982 1-1.9993" stroke="#1565c0" paint-order="fill stroke markers"/>
    <path d="m0 317.67 1-0.49193 1-0.49229 1-0.49267 1-0.49301 1-0.49336 1-0.4937 1-0.49402 1-0.49435 1-0.49465 1-0.49496 1-0.49525 1-0.49553 1-0.49581 1-0.49607 1-0.49633 1-0.49659 1-0.49682 1-0.49705 1-0.49728 1-0.49749 1-0.4977 1-0.49789 1-0.49808 1-0.49826 1-0.49843 1-0.4986 1-0.49874 1-0.49889 1-0.49903 1-0.49915 1-0.49927 1-0.49938 1-0.49947 1-0.49957 1-0.49966 1-0.49972 1-0.49979 2-0.99974 7-3.4998 1-0.49996 1-0.49993 1-0.49988 1-0.49984 1-0.49977 1-0.49971 1-0.49964 1-0.49955 1-0.49945 1-0.49936 1-0.49924 1-0.49912 1-0.499 1-0.49886 1-0.49871 1-0.49855 1-0.4984 1-0.49822 1-0.49804 1-0.49785 1-0.49765 1-0.49744 1-0.49723 1-0.497 1-0.49677 1-0.49652 1-0.49628 1-0.49601 1-0.49575 1-0.49546 1-0.49519 1-0.49488 1-0.49459 1-0.49427 1-0.49395 1-0.49362 1-0.49328 1-0.49294 1-0.49258 1-0.49221 1-0.49185 1-0.49146 1-0.49107 1-0.49067 1-0.49026 1-0.48985 1-0.48942 1-0.48899 1-0.48855 1-0.4881 1-0.48763 1-0.48717 1-0.4867 1-0.4862 1-0.48572 1-0.48521 1-0.4847 1-0.48418 1-0.48366 1-0.48312 1-0.48257 1-0.48202 1-0.48146 1-0.48089 1-0.48031 1-0.47972 1-0.47913 1-0.47852 1-0.47791 1-0.47729 1-0.47666 1-0.47603 1-0.47537 1-0.47473 1-0.47406 1-0.47339 1-0.47271 1-0.47202 1-0.47132 1-0.47063 1-0.46991 1-0.46918 1-0.46846 1-0.46772 1-0.46698 1-0.46622 1-0.46546 1-0.46469 1-0.46392 1-0.46312 1-0.46233 1-0.46153 1-0.46072 1-0.4599 1-0.45907 1-0.45823 1-0.45739 1-0.45654 1-0.45569 1-0.45481 1-0.45394 1-0.45305 1-0.45217 1-0.45126 1-0.45036 1-0.44944 1-0.44852 1-0.44759 1-0.44664 1-0.44571 1-0.44474 1-0.44379 1-0.44281 1-0.44184 1-0.44085 1-0.43986 1-0.43885 1-0.43785 1-0.43683 1-0.43581 1-0.43477 1-0.43373 1-0.43269 1-0.43163 1-0.43057 1-0.4295 1-0.42842 1-0.42734 1-0.42624 1-0.42514 1-0.42404 1-0.42292 1-0.42179 1-0.42067 1-0.41953 1-0.41838 1-0.41723 1-0.41608 1-0.4149 1-0.41373 1-0.41255 1-0.41136 1-0.41017 1-0.40896 1-0.40775 1-0.40653 1-0.40531 1-0.40408 1-0.40284 1-0.40159 1-0.40034 1-0.39907 1-0.39782 1-0.39653 1-0.39526 1-0.39396 1-0.39268 1-0.39137 1-0.39006 1-0.38874 1-0.38743 1-0.38609 1-0.38476 1-0.38341 1-0.38206 1-0.38071 1-0.37935 1-0.37797 1-0.3766 1-0.37521 1-0.37383 1-0.37243 1-0.37102 1-0.36962 1-0.3682 1-0.36678 1-0.36535 1-0.36391 1-0.36247 1-0.36103 1-0.35957 1-0.35811 1-0.35664 1-0.35517 1-0.35369 1-0.3522 1-0.35071 1-0.34921 1-0.34771 1-0.3462 1-0.34468 1-0.34316 1-0.34163 1-0.3401 1-0.33855 1-0.33701 1-0.33545 1-0.3339 1-0.33233 1-0.33077 1-0.32918 1-0.32761 1-0.32602 1-0.32442 1-0.32283 1-0.32122 1-0.31961 1-0.31799 1-0.31637 1-0.31475 1-0.31311 1-0.31147 1-0.30983 1-0.30819 1-0.30652 1-0.30487 1-0.3032 1-0.30153 1-0.29986 1-0.29817 1-0.29649 1-0.2948 1-0.29309 1-0.2914 1-0.28969 1-0.28798 1-0.28626 1-0.28454 1-0.28281 1-0.28107 1-0.27934 1-0.2776 1-0.27585 1-0.2741 1-0.27235 1-0.27058 1-0.26881 1-0.26704 1-0.26527 1-0.26349 1-0.2617 1-0.25991 1-0.25812 1-0.25632 1-0.25452 1-0.2527 1-0.2509 1-0.24908 1-0.24726 1-0.24543 1-0.2436 1-0.24177 1-0.23993 1-0.23809 1-0.23624 1-0.23439 1-0.23254 1-0.23068 1-0.22881 1-0.22695 1-0.22507 1-0.2232 1-0.22132 1-0.21944 1-0.21755 1-0.21566 1-0.21377 1-0.21187 1-0.20996 1-0.20806 1-0.20615 1-0.20424 1-0.20232 1-0.20041 1-0.19847 1-0.19656 1-0.19462 1-0.19268 1-0.19075 1-0.18881 1-0.18687 1-0.18491 1-0.18297 1-0.18101 1-0.17906 1-0.17709 1-0.17514 1-0.17316 1-0.1712 1-0.16922 1-0.16725 1-0.16527 1-0.16329 1-0.16131 1-0.15932 1-0.15733 1-0.15533 1-0.15334 1-0.15135 1-0.14934 1-0.14734 1-0.14533 1-0.14333 1-0.14131 1-0.1393 1-0.13729 1-0.13526 1-0.13325 1-0.13122 1-0.1292 1-0.12717 1-0.12514 1-0.12311 1-0.12107 1-0.11904 1-0.117 1-0.11496 1-0.11292 1-0.11087 1-0.10882 1-0.10678 1-0.10473 1-0.10267 1-0.10062 1-0.0986 1-0.0965 1-0.0944 1-0.0924 1-0.0903 1-0.0883 1-0.0862 1-0.0841 1-0.0821 1-0.08 1-0.0779 1-0.0758 1-0.0738 1-0.0717 1-0.0696 1-0.0675 1-0.0655 1-0.0634 1-0.0613 1-0.0592 1-0.0571 1-0.0551 1-0.053 1-0.0509 1-0.0488 1-0.0467 1-0.0446 1-0.0425 1-0.0404 1-0.0383 1-0.0362 1-0.0342 1-0.0321 1-0.03 1-0.0279 1-0.0258 1-0.0237 1-0.0216 1-0.0195 1-0.0174 1-0.0153 1-0.0132 1-0.0111 1-9e-3 1-7e-3 1-5e-3 1-3e-3 1-6.7e-4v5e-5l1 1e-3 1 4e-3 1 6e-3 1 8e-3 1 0.01 1 0.012 1 0.0141 1 0.0162 1 0.0182 1 0.0203 1 0.0224 1 0.0245 1 0.0266 1 0.0287 1 0.0308 1 0.0329 1 0.035 1 0.0371 1 0.0392 1 0.0413 1 0.0434 1 0.0455 1 0.0476 1 0.0496 1 0.0517 1 0.0538 1 0.0559 1 0.058 1 0.0601 1 0.0621 1 0.0642 1 0.0663 1 0.0684 1 0.0705 1 0.0725 1 0.0746 1 0.0767 1 0.0788 1 0.0808 1 0.0829 1 0.085 1 0.087 1 0.0891 1 0.0912 1 0.0932 1 0.0953 1 0.0973 1 0.0994 1 0.10146 1 0.1035 1 0.10556 1 0.10761 1 0.10965 1 0.1117 1 0.11375 1 0.11578 1 0.11783 1 0.11986 1 0.1219 1 0.12393 1 0.12596 1 0.12799 1 0.13002 1 0.13205 1 0.13406 1 0.13608 1 0.13811 1 0.14011 1 0.14213 1 0.14414 1 0.14615 1 0.14815 1 0.15015 1 0.15215 1 0.15415 1 0.15615 1 0.15813 1 0.16013 1 0.16211 1 0.16409 1 0.16607 1 0.16805 1 0.17003 1 0.17199 1 0.17396 1 0.17593 1 0.17789 1 0.17985 1 0.18181 1 0.18375 1 0.18571 1 0.18765 1 0.1896 1 0.19153 1 0.19347 1 0.19541 1 0.19733 1 0.19926 1 0.20118 1 0.2031 1 0.20501 1 0.20692 1 0.20884 1 0.21073 1 0.21264 1 0.21454 1 0.21642 1 0.21832 1 0.2202 1 0.22208 1 0.22396 1 0.22584 1 0.2277 1 0.22957 1 0.23143 1 0.23329 1 0.23514 1 0.23699 1 0.23883 1 0.24068 1 0.24251 1 0.24435 1 0.24617 1 0.24799 1 0.24982 1 0.25163 1 0.25344 1 0.25525 1 0.25705 1 0.25884 1 0.26064 1 0.26243 1 0.26421 1 0.26598 1 0.26776 1 0.26954 1 0.27129 1 0.27305 1 0.27481 1 0.27656 1 0.27831 1 0.28004 1 0.28178 1 0.28351 1 0.28524 1 0.28696 1 0.28867 1 0.29038 1 0.29209 1 0.29378 1 0.29549 1 0.29717 1 0.29885 1 0.30054 1 0.30221 1 0.30387 1 0.30554 1 0.3072 1 0.30885 1 0.3105 1 0.31214 1 0.31377 1 0.31541 1 0.31703 1 0.31865 1 0.32026 1 0.32187 1 0.32347 1 0.32507 1 0.32667 1 0.32824 1 0.32983 1 0.3314 1 0.33296 1 0.33453 1 0.33609 1 0.33764 1 0.33917 1 0.34072 1 0.34225 1 0.34378 1 0.3453 1 0.34681 1 0.34832 1 0.34982 1 0.35131 1 0.35281 1 0.35429 1 0.35576 1 0.35724 1 0.3587 1 0.36016 1 0.36161 1 0.36306 1 0.3645 1 0.36592 1 0.36736 1 0.36877 1 0.37019 1 0.3716 1 0.37299 1 0.37439 1 0.37578 1 0.37715 1 0.37853 1 0.3799 1 0.38126 1 0.38261 1 0.38396 1 0.3853 1 0.38663 1 0.38796 1 0.38928 1 0.39059 1 0.3919 1 0.3932 1 0.39449 1 0.39577 1 0.39706 1 0.39832 1 0.39959 1 0.40085 1 0.4021 1 0.40334 1 0.40457 1 0.40581 1 0.40703 1 0.40824 1 0.40945 1 0.41065 1 0.41184 1 0.41303 1 0.41421 1 0.41538 1 0.41654 1 0.4177 1 0.41885 1 0.41999 1 0.42112 1 0.42226 1 0.42337 1 0.42448 1 0.42559 1 0.42669 1 0.42778 1 0.42885 1 0.42994 1 0.431 1 0.43206 1 0.43311 1 0.43415 1 0.4352 1 0.43622 1 0.43724 1 0.43826 1 0.43926 1 0.44026 1 0.44125 1 0.44224 1 0.44321 1 0.44417 1 0.44514 1 0.44608 1 0.44703 1 0.44797 1 0.44889 1 0.44982 1 0.45072 1 0.45163 1 0.45253 1 0.45341 1 0.45429 1 0.45517 1 0.45603 1 0.45689 1 0.45773 1 0.45858 1 0.4594 1 0.46023 1 0.46105 1 0.46185 1 0.46266 1 0.46344 1 0.46423 1 0.46501 1 0.46577 1 0.46652 1 0.46728 1 0.46803 1 0.46875 1 0.46948 1 0.4702 1 0.47091 1 0.47161 1 0.4723 1 0.47299 1 0.47366 1 0.47433 1 0.47499 1 0.47564 1 0.47628 1 0.47692 1 0.47754 1 0.47816 1 0.47877 1 0.47937 1 0.47996 1 0.48054 1 0.48113 1 0.48168 1 0.48225 1 0.48279 1 0.48334 1 0.48387 1 0.48439 1 0.48491 1 0.48542 1 0.48591 1 0.48641 1 0.48689 1 0.48736 1 0.48782 1 0.48828 1 0.48873 1 0.48916 1 0.4896 1 0.49002 1 0.49043 1 0.49083 1 0.49123 1 0.49162 1 0.49199 1 0.49237 1 0.49272 1 0.49308 1 0.49342 1 0.49375 1 0.49409 1 0.4944 1 0.4947 1 0.49501 1 0.4953 1 0.49558 1 0.49586 1 0.49612 1 0.49638 1 0.49662 1 0.49686 1 0.4971 1 0.49731 1 0.49753 1 0.49773 1 0.49793 1 0.49811 1 0.4983 1 0.49846 1 0.49862 1 0.49877 1 0.49891 1 0.49905 1 0.49917 1 0.49929 1 0.4994 1 0.49949 1 0.49959 1 0.49966 1 0.49974 1 0.4998 1 0.49986 1 0.4999 1 0.49994 1 0.49997 2 0.99998 4 1.9999 2 0.9998 2 0.99959 1 0.4997 1 0.49962 1 0.49953 1 0.49944 1 0.49933 1 0.49923 1 0.4991 1 0.49897 1 0.49883 1 0.49869 1 0.49852 1 0.49837 1 0.49819 1 0.498 1 0.49782 1 0.49761 1 0.49741 1 0.49719 1 0.49696 1 0.49672 1 0.49648 1 0.49623 1 0.49597 1 0.4957 1 0.49542 1 0.49513 1 0.49483 1 0.49453 1 0.49422 1 0.49389 1 0.49356 1 0.49322 1 0.49288 1 0.49251 1 0.49215 1 0.49178 1 0.49139 1 0.491 1 0.4906 1 0.49019 1 0.48978 1 0.48934 1 0.48892 1 0.48846 1 0.48802 1 0.48756 1 0.48708 1 0.48661 1 0.48612 1 0.48563 1 0.48512 1 0.48461 1 0.48409 1 0.48356 1 0.48302 1 0.48248 1 0.48192 1 0.48136 1 0.48079 1 0.4802 1 0.47962 1 0.47902 1 0.47842 1 0.4778 1 0.47718 1 0.47655 1 0.47591 1 0.47526 1 0.47461 1 0.47394 1 0.47327 1 0.47259 1 0.4719 1 0.4712 1 0.4705 1 0.46978 1 0.46906 1 0.46833 1 0.46759 1 0.46685 1 0.46609 1 0.46532 1 0.46456 1 0.46377 1 0.46299 1 0.46219 1 0.46138 1 0.46057 1 0.45976 1 0.45892 1 0.45809 1 0.45724 1 0.45639 1 0.45553 1 0.45466 1 0.45378 1 0.4529 1 0.45201 1 0.4511 1 0.4502 1 0.44928 1 0.44835 1 0.44742 1 0.44649 1 0.44553 1 0.44458 1 0.44361 1 0.44264 1 0.44167 1 0.44067 1 0.43969 1 0.43867 1 0.43767 1 0.43665 1 0.43563 1 0.43459 1 0.43355 1 0.4325 1 0.43144 1 0.43038 1 0.42931 1 0.42823 1 0.42714 1 0.42605 1 0.42495 1 0.42384 1 0.42272 1 0.4216 1 0.42047 1 0.41932 1 0.41818 1 0.41703 1 0.41587 1 0.4147 1 0.41352 1 0.41234 1 0.41115 1 0.40995 1 0.40875 1 0.40754 1 0.40632 1 0.40509 1 0.40386 1 0.40262 1 0.40137 1 0.40011 1 0.39886 1 0.39759 1 0.39631 1 0.39502 1 0.39374 1 0.39245 1 0.39114 1 0.38983 1 0.38851 1 0.38719 1 0.38585 1 0.38453 1 0.38317 1 0.38183 1 0.38046 1 0.37911 1 0.37773 1 0.37635 1 0.37497 1 0.37358 1 0.37219 1 0.37077 1 0.36937 1 0.36795 1 0.36653 1 0.36509 1 0.36366 1 0.36222 1 0.36077 1 0.35931 1 0.35785 1 0.35638 1 0.35491 1 0.35343 1 0.35194 1 0.35045 1 0.34894 1 0.34745 1 0.34593 1 0.34441 1 0.34289 1 0.34136 1 0.33982 1 0.33829 1 0.33673 1 0.33518 1 0.33362 1 0.33206 1 0.33049 1 0.3289 1 0.32733 1 0.32573 1 0.32415 1 0.32254 1 0.32094 1 0.31932 1 0.31771 1 0.31609 1 0.31445 1 0.31283 1 0.31118 1 0.30954 1 0.30789 1 0.30624 1 0.30457 1 0.30291 1 0.30123 1 0.29956 1 0.29788 1 0.29619 1 0.2945 1 0.29279 1 0.2911 1 0.28939 1 0.28767 1 0.28596 1 0.28423 1 0.28251 1 0.28077 1 0.27903 1 0.27729 1 0.27555 1 0.27378 1 0.27204 1 0.27027 1 0.2685 1 0.26673 1 0.26495 1 0.26318 1 0.26138 1 0.2596 1 0.2578 1 0.256 1 0.2542 1 0.25239 1 0.25057 1 0.24876 1 0.24694 1 0.24511 1 0.24328 1 0.24144 1 0.23961 1 0.23776 1 0.23591 1 0.23407 1 0.23221 1 0.23034 1 0.22849 1 0.22662 1 0.22474 1 0.22287 1 0.22099 1 0.2191 1 0.21722 1 0.21533 1 0.21343 1 0.21153 1 0.20963 1 0.20773 1 0.20581 1 0.2039 1 0.20198 1 0.20007 1 0.19814 1 0.19621 1 0.19428 1 0.19234 1 0.19041 1 0.18846 1 0.18653 1 0.18457 1 0.18262 1 0.18067 1 0.17871 1 0.17675 1 0.17479 1 0.17281 1 0.17085 1 0.16888 1 0.1669 1 0.16492 1 0.16294 1 0.16096 1 0.15896 1 0.15698 1 0.15499 1 0.15298 1 0.15099 1 0.14899 1 0.14699 1 0.14498 1 0.14297 1 0.14096 1 0.13894 1 0.13693 1 0.13491 1 0.13289 1 0.13087 1 0.12884 1 0.12681 1 0.12478 1 0.12275 1 0.12072 1 0.11867 1 0.11664 1 0.1146 1 0.11256 1 0.11051 1 0.10846 1 0.10642 1 0.10436 1 0.10232 1 0.10025 1 0.0982 1 0.0961 1 0.0941 1 0.092 1 0.09 1 0.0879 1 0.0858 1 0.0838 1 0.0817 1 0.0796 1 0.0776 1 0.0755 1 0.0734 1 0.0713 1 0.0693 1 0.0672 1 0.0651 1 0.063 1 0.0609 1 0.0589 1 0.0568 1 0.0547 1 0.0526 1 0.0505 1 0.0484 1 0.0463 1 0.0443 1 0.0422 1 0.0401 1 0.038 1 0.0359 1 0.0338 1 0.0317 1 0.0296 1 0.0275 1 0.0254 1 0.0233 1 0.0212 1 0.0191 1 0.017 1 0.0149 1 0.0128 1 0.0107 1 9e-3 1 7e-3 1 4e-3 1 2e-3 1 4.1e-4v-1.5e-4l1-2e-3 1-4e-3 1-6e-3 1-8e-3 1-0.0102 1-0.0123 1-0.0144 1-0.0165 1-0.0186 1-0.0207 1-0.0228 1-0.0249 1-0.027 1-0.0291 1-0.0312 1-0.0333 1-0.0354 1-0.0375 1-0.0396 1-0.0417 1-0.0437 1-0.0458 1-0.0479 1-0.05 1-0.0521 1-0.0542 1-0.0563 1-0.0583 1-0.0604 1-0.0625 1-0.0646 1-0.0667 1-0.0688 1-0.0708 1-0.0729 1-0.075 1-0.077 1-0.0791 1-0.0812 1-0.0833 1-0.0853 1-0.0874 1-0.0895 1-0.0915 1-0.0936 1-0.0956 1-0.0977 1-0.0998 1-0.10182 1-0.10387 1-0.10592 1-0.10796 1-0.11002 1-0.11206 1-0.11411 1-0.11614 1-0.11819 1-0.12022 1-0.12226 1-0.12429 1-0.12632 1-0.12835 1-0.13037 1-0.1324 1-0.13442 1-0.13644 1-0.13846 1-0.14047 1-0.14249 1-0.14449 1-0.1465 1-0.14851 1-0.1505 1-0.15251 1-0.1545 1-0.15649 1-0.15849 1-0.16047 1-0.16246 1-0.16445 1-0.16642 1-0.1684 1-0.17037 1-0.17234 1-0.17431 1-0.17628 1-0.17823 1-0.1802 1-0.18215 1-0.1841 1-0.18605 1-0.18799 1-0.18994 1-0.19188 1-0.19381 1-0.19574 1-0.19767 1-0.1996 1-0.20152 1-0.20344 1-0.20535 1-0.20726 1-0.20917 1-0.21107 1-0.21298 1-0.21486 1-0.21676 1-0.21865 1-0.22054 1-0.22241 1-0.22429 1-0.22617 1-0.22803 1-0.2299 1-0.23175 1-0.23362 1-0.23547 1-0.23731 1-0.23916 1-0.241 1-0.24284 1-0.24467 1-0.24649 1-0.24832 1-0.25014 1-0.25195 1-0.25376 1-0.25556 1-0.25737 1-0.25916 1-0.26095 1-0.26274 1-0.26453 1-0.2663 1-0.26807 1-0.26984 1-0.27161 1-0.27336 1-0.27512 1-0.27687 1-0.27861 1-0.28035 1-0.28209 1-0.28382 1-0.28554 1-0.28726 1-0.28897 1-0.29068 1-0.29239 1-0.29409 1-0.29578 1-0.29746 1-0.29916 1-0.30083 1-0.3025 1-0.30417 1-0.30583 1-0.30749 1-0.30915 1-0.31078 1-0.31243 1-0.31406 1-0.3157 1-0.31731 1-0.31894 1-0.32054 1-0.32216 1-0.32375 1-0.32535 1-0.32695 1-0.32852 1-0.33011 1-0.33167 1-0.33325 1-0.3348 1-0.33636 1-0.33791 1-0.33945 1-0.34099 1-0.34252 1-0.34404 1-0.34557 1-0.34707 1-0.34859 1-0.35008 1-0.35158 1-0.35307 1-0.35455 1-0.35603 1-0.35749 1-0.35896 1-0.36042 1-0.36187 1-0.36331 1-0.36475 1-0.36618 1-0.3676 1-0.36903 1-0.37043 1-0.37185 1-0.37324 1-0.37463 1-0.37602 1-0.3774 1-0.37877 1-0.38014 1-0.3815 1-0.38285 1-0.3842 1-0.38553 1-0.38687 1-0.38819 1-0.38951 1-0.39082 1-0.39213 1-0.39343 1-0.39472 1-0.396 1-0.39728 1-0.39854 1-0.39982 1-0.40106 1-0.40232 1-0.40356 1-0.40479 1-0.40603 1-0.40724 1-0.40845 1-0.40967 1-0.41086 1-0.41205 1-0.41324 1-0.41441 1-0.41559 1-0.41675 1-0.4179 1-0.41905 1-0.42019 1-0.42133 1-0.42245 1-0.42356 1-0.42468 1-0.42579 1-0.42688 1-0.42796 1-0.42905 1-0.43013 1-0.43118 1-0.43225 1-0.4333 1-0.43433 1-0.43538 1-0.4364 1-0.43742 1-0.43844 1-0.43944 1-0.44043 1-0.44143 1-0.44241 1-0.44338 1-0.44434 1-0.4453 1-0.44626 1-0.44719 1-0.44813 1-0.44906 1-0.44998 1-0.45088 1-0.45179 1-0.45268 1-0.45357 1-0.45445 1-0.45532 1-0.45618 1-0.45704 1-0.45788 1-0.45872 1-0.45956 1-0.46037 1-0.46119 1-0.462 1-0.46279 1-0.46359 1-0.46436 1-0.46514 1-0.4659 1-0.46667 1-0.46741 1-0.46815 1-0.46888 1-0.46961 1-0.47033 1-0.47103 1-0.47173 1-0.47242 1-0.47311 1-0.47378 1-0.47445 1-0.4751 1-0.47576 1-0.47639 1-0.47703 1-0.47765 1-0.47827 1-0.47887 1-0.47948 1-0.48006 1-0.48065 1-0.48122 1-0.48179 1-0.48234 1-0.48289 1-0.48344 1-0.48396 1-0.48448 1-0.485 1-0.48551 1-0.486 1-0.48649 1-0.48697 1-0.48744 1-0.48791 1-0.48836 1-0.4888 1-0.48925 1-0.48967 1-0.49009 1-0.4905 1-0.49091 1-0.49129 1-0.49169 1-0.49206 1-0.49243 1-0.49278 1-0.49314 1-0.49348 1-0.49382 1-0.49414 1-0.49445 1-0.49476 1-0.49506 1-0.49535 1-0.49563 1-0.4959 1-0.49617 1-0.49642 1-0.49667 1-0.49691 1-0.49713 1-0.49735 1-0.49757 1-0.49776 1-0.49797 1-0.49814 1-0.49832 1-0.49849 1-0.49865 1-0.4988 1-0.49893 1-0.49908 1-0.49919 1-0.49931 1-0.49941 1-0.49951 1-0.4996 1-0.49968 1-0.49975 2-0.99968 2-0.99985 2-0.99996" stroke="#d32f2f" paint-order="fill stroke markers"/>
    <path d="m0 306.92 2-0.49803 2-0.49821 1-0.24916 2-0.49847 2-0.49862 2-0.49877 3-0.74843 2-0.49911 4-0.99858 4-0.99899 5-1.2492 22-5.4994 1-0.24996 2-0.4999 1-0.24993 1-0.24992 1-0.24991 1-0.24989 1-0.24987 1-0.24986 1-0.24984 1-0.24982 1-0.24979 1-0.24978 1-0.24976 1-0.24973 1-0.2497 1-0.24968 1-0.24966 1-0.24962 1-0.2496 1-0.24956 1-0.24954 1-0.2495 1-0.24947 1-0.24943 1-0.2494 1-0.24936 1-0.24932 1-0.24928 1-0.24924 1-0.2492 1-0.24916 1-0.24912 1-0.24907 1-0.24902 1-0.24898 1-0.24893 1-0.24888 1-0.24884 1-0.24878 1-0.24872 1-0.24868 1-0.24862 1-0.24856 1-0.24851 1-0.24845 1-0.24839 1-0.24833 1-0.24827 1-0.24821 1-0.24814 1-0.24808 1-0.24802 1-0.24795 1-0.24788 1-0.24781 1-0.24774 1-0.24767 1-0.2476 1-0.24753 1-0.24745 1-0.24738 1-0.2473 1-0.24722 1-0.24715 1-0.24706 1-0.24699 1-0.2469 1-0.24682 1-0.24674 1-0.24665 1-0.24657 1-0.24647 1-0.24639 1-0.2463 1-0.24621 1-0.24612 1-0.24603 1-0.24593 1-0.24584 1-0.24574 1-0.24564 1-0.24555 1-0.24545 1-0.24534 1-0.24525 1-0.24514 1-0.24504 1-0.24494 1-0.24483 1-0.24472 1-0.24462 1-0.24451 1-0.2444 1-0.24428 1-0.24418 1-0.24406 1-0.24394 1-0.24384 1-0.24371 1-0.2436 1-0.24348 1-0.24336 1-0.24324 1-0.24312 1-0.24299 1-0.24288 1-0.24274 1-0.24262 1-0.2425 1-0.24236 1-0.24224 1-0.2421 1-0.24198 1-0.24184 1-0.24171 1-0.24158 1-0.24144 1-0.2413 1-0.24116 1-0.24103 1-0.24089 1-0.24074 1-0.24061 1-0.24046 1-0.24031 1-0.24017 1-0.24003 1-0.23988 1-0.23973 1-0.23958 1-0.23943 1-0.23928 1-0.23913 1-0.23897 1-0.23882 1-0.23866 1-0.23851 1-0.23835 1-0.23819 1-0.23803 1-0.23787 1-0.2377 1-0.23755 1-0.23738 1-0.23721 1-0.23705 1-0.23688 1-0.23672 1-0.23654 1-0.23638 1-0.2362 1-0.23603 1-0.23586 1-0.23568 1-0.23551 1-0.23533 1-0.23516 1-0.23497 1-0.2348 1-0.23461 1-0.23444 1-0.23425 1-0.23406 1-0.23389 1-0.23369 1-0.23351 1-0.23332 1-0.23314 1-0.23294 1-0.23275 1-0.23256 1-0.23237 1-0.23217 1-0.23198 1-0.23178 1-0.23159 1-0.23139 1-0.23119 1-0.23098 1-0.23079 1-0.23059 1-0.23038 1-0.23018 1-0.22997 1-0.22976 1-0.22956 1-0.22935 1-0.22915 1-0.22893 1-0.22872 1-0.22851 1-0.22829 1-0.22808 1-0.22787 1-0.22765 1-0.22743 1-0.22721 1-0.227 1-0.22677 1-0.22655 1-0.22633 1-0.22611 1-0.22589 1-0.22565 1-0.22544 1-0.2252 1-0.22498 1-0.22474 1-0.22452 1-0.22429 1-0.22405 1-0.22382 1-0.22359 1-0.22335 1-0.22311 1-0.22288 1-0.22264 1-0.2224 1-0.22217 1-0.22192 1-0.22167 1-0.22144 1-0.22119 1-0.22095 1-0.2207 1-0.22045 1-0.22021 1-0.21996 1-0.2197 1-0.21946 1-0.2192 1-0.21896 1-0.2187 1-0.21844 1-0.21819 1-0.21793 1-0.21768 1-0.21741 1-0.21716 1-0.2169 1-0.21663 1-0.21638 1-0.21611 1-0.21584 1-0.21558 1-0.21532 1-0.21505 1-0.21478 1-0.21451 1-0.21424 1-0.21397 1-0.2137 1-0.21343 1-0.21315 1-0.21288 1-0.2126 1-0.21233 1-0.21205 1-0.21177 1-0.21149 1-0.21121 1-0.21093 1-0.21065 1-0.21037 1-0.21008 1-0.20979 1-0.20952 1-0.20922 1-0.20894 1-0.20865 1-0.20836 1-0.20807 1-0.20778 1-0.20748 1-0.20719 1-0.2069 1-0.20661 1-0.20631 1-0.20601 1-0.20571 1-0.20542 1-0.20512 1-0.20481 1-0.20452 1-0.20421 1-0.20391 1-0.20361 1-0.2033 1-0.203 1-0.20269 1-0.20238 1-0.20207 1-0.20177 1-0.20145 1-0.20114 1-0.20084 1-0.20051 1-0.20021 1-0.19989 1-0.19958 1-0.19925 1-0.19895 1-0.19862 1-0.19831 1-0.19798 1-0.19767 1-0.19734 1-0.19702 1-0.1967 1-0.19637 1-0.19605 1-0.19572 1-0.1954 1-0.19506 1-0.19474 1-0.19441 1-0.19408 1-0.19375 1-0.19342 1-0.19309 1-0.19275 1-0.19241 1-0.19209 1-0.19174 1-0.19141 1-0.19107 1-0.19073 1-0.1904 1-0.19005 1-0.18971 1-0.18937 1-0.18903 1-0.18868 1-0.18834 1-0.18799 1-0.18765 1-0.1873 1-0.18695 1-0.1866 1-0.18626 1-0.1859 1-0.18556 1-0.1852 1-0.18485 1-0.18449 1-0.18414 1-0.18379 1-0.18343 1-0.18307 1-0.18272 1-0.18235 1-0.182 1-0.18164 1-0.18128 1-0.18091 1-0.18056 1-0.18019 1-0.17982 1-0.17947 1-0.17909 1-0.17873 1-0.17837 1-0.17799 1-0.17763 1-0.17726 1-0.17688 1-0.17652 1-0.17614 1-0.17577 1-0.1754 1-0.17503 1-0.17465 1-0.17427 1-0.1739 1-0.17352 1-0.17314 1-0.17276 1-0.17239 1-0.172 1-0.17163 1-0.17124 1-0.17086 1-0.17047 1-0.17009 1-0.16971 1-0.16932 1-0.16894 1-0.16855 1-0.16816 1-0.16777 1-0.16738 1-0.167 1-0.1666 1-0.16621 1-0.16582 1-0.16543 1-0.16503 1-0.16464 1-0.16424 1-0.16385 1-0.16345 1-0.16305 1-0.16266 1-0.16226 1-0.16186 1-0.16145 1-0.16106 1-0.16066 1-0.16025 1-0.15985 1-0.15945 1-0.15904 1-0.15864 1-0.15824 1-0.15782 1-0.15742 1-0.15701 1-0.15661 1-0.15619 1-0.15578 1-0.15538 1-0.15496 1-0.15455 1-0.15414 1-0.15372 1-0.15332 1-0.15289 1-0.15248 1-0.15207 1-0.15165 1-0.15123 1-0.15081 1-0.1504 1-0.14997 1-0.14956 1-0.14913 1-0.14872 1-0.14829 1-0.14787 1-0.14744 1-0.14703 1-0.1466 1-0.14617 1-0.14575 1-0.14532 1-0.14489 1-0.14447 1-0.14403 1-0.14361 1-0.14318 1-0.14275 1-0.14232 1-0.14189 1-0.14145 1-0.14102 1-0.14059 1-0.14016 1-0.13972 1-0.13928 1-0.13885 1-0.13841 1-0.13798 1-0.13754 1-0.1371 1-0.13666 1-0.13622 1-0.13578 1-0.13534 1-0.1349 1-0.13446 1-0.13401 1-0.13358 1-0.13313 1-0.13268 1-0.13224 1-0.13179 1-0.13135 1-0.13091 1-0.13045 1-0.13001 1-0.12956 1-0.12911 1-0.12866 1-0.12821 1-0.12776 1-0.12731 1-0.12686 1-0.1264 1-0.12596 1-0.1255 1-0.12504 1-0.12459 1-0.12414 1-0.12368 1-0.12323 1-0.12277 1-0.12231 1-0.12185 1-0.1214 1-0.12093 1-0.12048 1-0.12002 1-0.11956 1-0.1191 1-0.11863 1-0.11817 1-0.11772 1-0.11724 1-0.11679 1-0.11632 1-0.11586 1-0.11539 1-0.11492 1-0.11446 1-0.114 1-0.11352 1-0.11306 1-0.11259 1-0.11213 1-0.11165 1-0.11119 1-0.11071 1-0.11024 1-0.10978 1-0.1093 1-0.10883 1-0.10836 1-0.10788 1-0.10741 1-0.10694 1-0.10646 1-0.10599 1-0.10551 1-0.10504 1-0.10456 1-0.10409 1-0.1036 1-0.10313 1-0.10266 1-0.10217 1-0.1017 1-0.10121 1-0.10074 1-0.10025 1-0.0998 1-0.0993 1-0.0988 1-0.0983 1-0.0978 1-0.0974 1-0.0969 1-0.0964 1-0.0959 1-0.0954 1-0.0949 1-0.0945 1-0.094 1-0.0935 1-0.093 1-0.0925 1-0.092 1-0.0915 1-0.0911 1-0.0906 1-0.0901 1-0.0896 1-0.0891 1-0.0886 1-0.0881 1-0.0876 1-0.0871 1-0.0866 1-0.0862 1-0.0856 1-0.0852 1-0.0847 1-0.0842 1-0.0837 1-0.0832 1-0.0827 1-0.0822 1-0.0817 1-0.0812 1-0.0807 1-0.0802 1-0.0797 1-0.0792 1-0.0787 1-0.0782 1-0.0777 1-0.0772 1-0.0767 1-0.0762 1-0.0757 1-0.0752 1-0.0747 1-0.0742 1-0.0737 1-0.0732 1-0.0727 1-0.0722 1-0.0717 1-0.0712 1-0.0707 1-0.0702 1-0.0697 1-0.0692 1-0.0687 1-0.0682 1-0.0677 1-0.0672 1-0.0667 1-0.0662 1-0.0657 1-0.0652 1-0.0647 1-0.0642 1-0.0636 1-0.0631 1-0.0626 1-0.0621 1-0.0616 1-0.0611 1-0.0606 1-0.0601 1-0.0596 1-0.0591 1-0.0586 1-0.058 1-0.0575 1-0.057 1-0.0565 1-0.056 1-0.0555 1-0.055 1-0.0545 1-0.054 1-0.0534 1-0.0529 1-0.0524 1-0.0519 1-0.0514 1-0.0509 1-0.0504 1-0.0499 1-0.0493 1-0.0488 1-0.0483 1-0.0478 1-0.0473 1-0.0468 1-0.0462 1-0.0457 1-0.0452 1-0.0447 1-0.0442 1-0.0437 1-0.0432 1-0.0426 1-0.0421 1-0.0416 1-0.0411 1-0.0406 1-0.0401 1-0.0395 1-0.039 1-0.0385 1-0.038 1-0.0375 1-0.037 1-0.0364 1-0.0359 1-0.0354 1-0.0349 1-0.0343 1-0.0338 1-0.0333 1-0.0328 1-0.0323 1-0.0317 1-0.0312 1-0.0307 1-0.0302 1-0.0297 1-0.0291 1-0.0286 1-0.0281 1-0.0276 1-0.0271 1-0.0265 1-0.026 1-0.0255 1-0.025 1-0.0245 1-0.0239 1-0.0234 1-0.0229 1-0.0224 1-0.0219 1-0.0213 1-0.0208 1-0.0203 1-0.0197 1-0.0192 1-0.0187 1-0.0182 1-0.0177 1-0.0171 1-0.0166 1-0.0161 1-0.0156 1-0.0151 1-0.0145 1-0.014 1-0.0135 1-0.013 1-0.0124 1-0.0119 1-0.0114 1-0.0109 1-0.0103 1-0.01 2-0.018 2-0.016 2-0.014 2-0.012 2-0.01 2-8e-3 1-3e-3 2-4e-3 1-1e-3 1-8.9e-4 1-3.7e-4v1.5e-4l1-1.7e-4v1.7e-4l1 6.8e-4 1 1e-3 2 4e-3 2 6e-3 2 8e-3 2 0.01 2 0.012 2 0.014 1 8e-3 2 0.018 1 0.01 1 0.0101 1 0.0106 1 0.0112 1 0.0117 1 0.0122 1 0.0127 1 0.0133 1 0.0138 1 0.0143 1 0.0148 1 0.0153 1 0.0159 1 0.0164 1 0.0169 1 0.0174 1 0.018 1 0.0185 1 0.019 1 0.0195 1 0.0201 1 0.0206 1 0.0211 1 0.0216 1 0.0222 1 0.0227 1 0.0232 1 0.0237 1 0.0242 1 0.0248 1 0.0253 1 0.0258 1 0.0263 1 0.0268 1 0.0274 1 0.0279 1 0.0284 1 0.0289 1 0.0294 1 0.03 1 0.0305 1 0.031 1 0.0315 1 0.032 1 0.0326 1 0.0331 1 0.0336 1 0.0341 1 0.0347 1 0.0352 1 0.0357 1 0.0362 1 0.0367 1 0.0372 1 0.0378 1 0.0383 1 0.0388 1 0.0393 1 0.0398 1 0.0404 1 0.0409 1 0.0414 1 0.0419 1 0.0424 1 0.043 1 0.0434 1 0.044 1 0.0445 1 0.045 1 0.0455 1 0.046 1 0.0466 1 0.0471 1 0.0476 1 0.0481 1 0.0486 1 0.0491 1 0.0496 1 0.0502 1 0.0507 1 0.0512 1 0.0517 1 0.0522 1 0.0527 1 0.0532 1 0.0538 1 0.0542 1 0.0548 1 0.0553 1 0.0558 1 0.0563 1 0.0568 1 0.0573 1 0.0578 1 0.0583 1 0.0589 1 0.0594 1 0.0599 1 0.0604 1 0.0609 1 0.0614 1 0.0619 1 0.0624 1 0.0629 1 0.0634 1 0.0639 1 0.0644 1 0.065 1 0.0655 1 0.066 1 0.0665 1 0.067 1 0.0675 1 0.068 1 0.0685 1 0.069 1 0.0695 1 0.07 1 0.0705 1 0.071 1 0.0715 1 0.072 1 0.0725 1 0.073 1 0.0735 1 0.074 1 0.0745 1 0.075 1 0.0755 1 0.076 1 0.0765 1 0.077 1 0.0775 1 0.078 1 0.0785 1 0.079 1 0.0795 1 0.08 1 0.0805 1 0.081 1 0.0815 1 0.082 1 0.0825 1 0.083 1 0.0835 1 0.084 1 0.0845 1 0.085 1 0.0855 1 0.0859 1 0.0864 1 0.0869 1 0.0874 1 0.0879 1 0.0884 1 0.0889 1 0.0894 1 0.0899 1 0.0904 1 0.0908 1 0.0913 1 0.0918 1 0.0923 1 0.0928 1 0.0933 1 0.0938 1 0.0943 1 0.0947 1 0.0952 1 0.0957 1 0.0962 1 0.0967 1 0.0972 1 0.0976 1 0.0981 1 0.0986 1 0.0991 1 0.0996 1 0.10005 1 0.10054 1 0.10101 1 0.1015 1 0.10197 1 0.10245 1 0.10293 1 0.10341 1 0.10389 1 0.10436 1 0.10484 1 0.10531 1 0.10579 1 0.10626 1 0.10674 1 0.10722 1 0.10768 1 0.10816 1 0.10863 1 0.10911 1 0.10957 1 0.11005 1 0.11052 1 0.11099 1 0.11145 1 0.11193 1 0.1124 1 0.11286 1 0.11333 1 0.1138 1 0.11426 1 0.11473 1 0.1152 1 0.11566 1 0.11613 1 0.11659 1 0.11706 1 0.11751 1 0.11798 1 0.11845 1 0.1189 1 0.11936 1 0.11983 1 0.12029 1 0.12074 1 0.1212 1 0.12167 1 0.12212 1 0.12257 1 0.12304 1 0.12349 1 0.12394 1 0.12441 1 0.12485 1 0.12531 1 0.12577 1 0.12621 1 0.12667 1 0.12712 1 0.12757 1 0.12803 1 0.12847 1 0.12892 1 0.12937 1 0.12982 1 0.13027 1 0.13072 1 0.13116 1 0.13161 1 0.13205 1 0.1325 1 0.13294 1 0.13339 1 0.13383 1 0.13427 1 0.13472 1 0.13515 1 0.1356 1 0.13604 1 0.13647 1 0.13692 1 0.13736 1 0.13779 1 0.13823 1 0.13866 1 0.13911 1 0.13954 1 0.13997 1 0.14041 1 0.14084 1 0.14127 1 0.14171 1 0.14213 1 0.14257 1 0.143 1 0.14343 1 0.14386 1 0.14429 1 0.14471 1 0.14514 1 0.14557 1 0.146 1 0.14642 1 0.14684 1 0.14727 1 0.14769 1 0.14812 1 0.14854 1 0.14896 1 0.14938 1 0.1498 1 0.15021 1 0.15064 1 0.15106 1 0.15147 1 0.1519 1 0.1523 1 0.15272 1 0.15314 1 0.15355 1 0.15397 1 0.15438 1 0.15479 1 0.1552 1 0.15561 1 0.15602 1 0.15644 1 0.15684 1 0.15725 1 0.15765 1 0.15807 1 0.15846 1 0.15888 1 0.15928 1 0.15968 1 0.16008 1 0.16049 1 0.16089 1 0.16129 1 0.16169 1 0.16209 1 0.16249 1 0.16289 1 0.16329 1 0.16368 1 0.16408 1 0.16447 1 0.16487 1 0.16526 1 0.16566 1 0.16604 1 0.16644 1 0.16683 1 0.16722 1 0.16761 1 0.168 1 0.16839 1 0.16877 1 0.16916 1 0.16955 1 0.16993 1 0.17031 1 0.1707 1 0.17108 1 0.17147 1 0.17184 1 0.17223 1 0.1726 1 0.17299 1 0.17336 1 0.17374 1 0.17411 1 0.1745 1 0.17486 1 0.17525 1 0.17561 1 0.17599 1 0.17636 1 0.17673 1 0.1771 1 0.17748 1 0.17784 1 0.17821 1 0.17857 1 0.17895 1 0.1793 1 0.17968 1 0.18004 1 0.1804 1 0.18076 1 0.18113 1 0.18149 1 0.18184 1 0.18221 1 0.18257 1 0.18292 1 0.18328 1 0.18364 1 0.18399 1 0.18435 1 0.1847 1 0.18505 1 0.18541 1 0.18576 1 0.18611 1 0.18645 1 0.18681 1 0.18715 1 0.18751 1 0.18784 1 0.1882 1 0.18854 1 0.18888 1 0.18923 1 0.18957 1 0.18991 1 0.19025 1 0.19059 1 0.19093 1 0.19126 1 0.19161 1 0.19194 1 0.19228 1 0.19261 1 0.19294 1 0.19328 1 0.19361 1 0.19394 1 0.19428 1 0.1946 1 0.19493 1 0.19526 1 0.19558 1 0.19591 1 0.19624 1 0.19656 1 0.19689 1 0.19721 1 0.19753 1 0.19785 1 0.19817 1 0.19849 1 0.19881 1 0.19913 1 0.19944 1 0.19976 1 0.20007 1 0.20039 1 0.2007 1 0.20101 1 0.20133 1 0.20163 1 0.20195 1 0.20225 1 0.20256 1 0.20287 1 0.20317 1 0.20348 1 0.20378 1 0.20409 1 0.20439 1 0.20469 1 0.20499 1 0.20529 1 0.20559 1 0.20589 1 0.20619 1 0.20648 1 0.20677 1 0.20707 1 0.20737 1 0.20765 1 0.20795 1 0.20824 1 0.20853 1 0.20881 1 0.20911 1 0.20939 1 0.20968 1 0.20996 1 0.21025 1 0.21053 1 0.21081 1 0.2111 1 0.21137 1 0.21165 1 0.21194 1 0.21221 1 0.21249 1 0.21276 1 0.21304 1 0.21331 1 0.21358 1 0.21386 1 0.21413 1 0.2144 1 0.21467 1 0.21493 1 0.21521 1 0.21547 1 0.21573 1 0.216 1 0.21626 1 0.21653 1 0.21679 1 0.21705 1 0.2173 1 0.21757 1 0.21783 1 0.21808 1 0.21833 1 0.2186 1 0.21884 1 0.2191 1 0.21935 1 0.21961 1 0.21985 1 0.2201 1 0.22035 1 0.2206 1 0.22084 1 0.22109 1 0.22134 1 0.22157 1 0.22182 1 0.22206 1 0.2223 1 0.22254 1 0.22278 1 0.22302 1 0.22325 1 0.22349 1 0.22372 1 0.22396 1 0.22419 1 0.22442 1 0.22465 1 0.22488 1 0.22511 1 0.22534 1 0.22556 1 0.22579 1 0.22601 1 0.22624 1 0.22646 1 0.22668 1 0.22691 1 0.22712 1 0.22734 1 0.22756 1 0.22777 1 0.22799 1 0.22821 1 0.22842 1 0.22863 1 0.22884 1 0.22906 1 0.22926 1 0.22947 1 0.22968 1 0.22989 1 0.23009 1 0.2303 1 0.2305 1 0.2307 1 0.2309 1 0.23111 1 0.2313 1 0.2315 1 0.23171 1 0.23189 1 0.23209 1 0.23229 1 0.23248 1 0.23267 1 0.23287 1 0.23305 1 0.23324 1 0.23343 1 0.23362 1 0.23381 1 0.23399 1 0.23417 1 0.23436 1 0.23454 1 0.23472 1 0.2349 1 0.23508 1 0.23525 1 0.23544 1 0.23561 1 0.23578 1 0.23596 1 0.23613 1 0.2363 1 0.23648 1 0.23664 1 0.23681 1 0.23698 1 0.23715 1 0.23731 1 0.23748 1 0.23764 1 0.2378 1 0.23796 1 0.23812 1 0.23829 1 0.23844 1 0.23859 1 0.23876 1 0.23891 1 0.23906 1 0.23921 1 0.23937 1 0.23952 1 0.23967 1 0.23981 1 0.23997 1 0.24011 1 0.24026 1 0.2404 1 0.24054 1 0.24069 1 0.24082 1 0.24097 1 0.24111 1 0.24124 1 0.24139 1 0.24152 1 0.24165 1 0.24179 1 0.24191 1 0.24206 1 0.24218 1 0.24231 1 0.24244 1 0.24257 1 0.24269 1 0.24282 1 0.24295 1 0.24306 1 0.24319 1 0.24331 1 0.24343 1 0.24355 1 0.24367 1 0.24378 1 0.2439 1 0.24401 1 0.24413 1 0.24424 1 0.24435 1 0.24446 1 0.24457 1 0.24468 1 0.24479 1 0.24489 1 0.245 1 0.2451 1 0.2452 1 0.24531 1 0.2454 1 0.24551 1 0.2456 1 0.2457 1 0.2458 1 0.24589 1 0.24599 1 0.24608 1 0.24617 1 0.24626 1 0.24635 1 0.24645 1 0.24652 1 0.24662 1 0.2467 1 0.24679 1 0.24686 1 0.24695 1 0.24704 1 0.24711 1 0.24719 1 0.24727 1 0.24734 1 0.24742 1 0.2475 1 0.24757 1 0.24764 1 0.24771 1 0.24779 1 0.24785 1 0.24792 1 0.24799 1 0.24805 1 0.24812 1 0.24818 1 0.24824 1 0.24831 1 0.24836 1 0.24843 1 0.24848 1 0.24854 1 0.2486 1 0.24865 1 0.24871 1 0.24876 1 0.24881 1 0.24886 1 0.24891 1 0.24895 1 0.24901 1 0.24905 1 0.2491 1 0.24914 1 0.24918 1 0.24923 1 0.24926 1 0.24931 1 0.24935 1 0.24938 1 0.24941 1 0.24946 1 0.24949 1 0.24952 1 0.24955 1 0.24958 1 0.24961 1 0.24965 1 0.24966 1 0.2497 1 0.24972 1 0.24975 1 0.24976 1 0.24979 1 0.24981 1 0.24984 1 0.24985 1 0.24986 1 0.24989 1 0.2499 1 0.24991 2 0.49986 1 0.24995 1 0.24996 1 0.24997 2 0.49996 2 0.49998 2 0.5" stroke="#db6114" paint-order="fill stroke markers"/>
    <path d="m400.92 815v-820" stroke="#000" paint-order="fill stroke markers"/>
    <path d="m1235.2 815v-820" stroke="#000" paint-order="fill stroke markers"/>
   </g>
  </g>
  <text x="426.05173" y="436.06131" fill="#aa0000" font-family="'Linux Libertine O'" font-size="37.333px" font-weight="bold" stroke="#00aa00" stroke-linecap="round" stroke-linejoin="round" stroke-miterlimit="4.9" text-align="center" text-anchor="middle" style="line-height:0.48;paint-order:markers fill stroke" xml:space="preserve"><tspan x="426.05173" y="436.06131" fill="#000000" font-family="'Linux Libertine O'" font-size="37.333px" font-weight="normal" stroke="none">p<tspan baseline-shift="sub" font-size="65%">1</tspan></tspan></text>
  <text x="1260.0518" y="436.06131" fill="#aa0000" font-family="'Linux Libertine O'" font-size="37.333px" font-weight="bold" stroke="#00aa00" stroke-linecap="round" stroke-linejoin="round" stroke-miterlimit="4.9" text-align="center" text-anchor="middle" style="line-height:0.48;paint-order:markers fill stroke" xml:space="preserve"><tspan x="1260.0518" y="436.06131" fill="#000000" font-family="'Linux Libertine O'" font-size="37.333px" font-weight="normal" stroke="none">p<tspan baseline-shift="sub" font-size="65%">2</tspan></tspan></text>
 </g>
</svg>
